<svg xmlns="http://www.w3.org/2000/svg" width="119" height="38" fill="none" viewBox="0 0 119 38"><g clip-path="url(#clip0_46_781)"><mask id="mask0_46_781" style="mask-type:luminance" width="119" height="38" x="0" y="0" maskUnits="userSpaceOnUse"><path fill="#fff" d="M0 0H118.53V37.7623H0V0Z"/></mask><g mask="url(#mask0_46_781)"><path fill="#A6A6A6" d="M109.089 0H9.44279L8.35877 0.00176744L7.44861 0.0141395C6.78388 0.0212093 6.12009 0.0777674 5.46373 0.181163C4.80837 0.287157 4.17365 0.48678 3.58111 0.773256C2.98871 1.06227 2.44759 1.43769 1.9774 1.88586C1.50512 2.33302 1.11093 2.85 0.810641 3.41647C0.510352 3.98293 0.300242 4.5874 0.191469 5.21307C0.0826953 5.83874 0.0213359 6.46972 0.0138984 7.10246L-0.000976562 7.97205V29.7938L0.0138984 30.6642C0.0213359 31.2979 0.0808359 31.9297 0.191469 32.5545C0.300421 33.1801 0.509217 33.7863 0.810641 34.352C1.11045 34.9167 1.50446 35.4315 1.9774 35.8764C2.44596 36.3271 2.98704 36.7027 3.58111 36.989C4.17518 37.2753 4.8083 37.4768 5.46373 37.5847C6.12002 37.6875 6.78352 37.7433 7.44861 37.7517L8.35877 37.7614L9.44279 37.7632H109.089L110.162 37.7614L111.076 37.7517C111.74 37.7437 112.402 37.688 113.056 37.5847C113.715 37.4768 114.352 37.2762 114.947 36.989C115.543 36.7018 116.081 36.3262 116.549 35.8764C117.018 35.4266 117.416 34.9158 117.719 34.352C118.022 33.7882 118.226 33.1802 118.332 32.5545C118.439 31.9288 118.504 31.2979 118.517 30.6642L118.52 29.7938L118.528 28.7607V9.00335L118.52 7.97293L118.517 7.10335C118.504 6.46972 118.443 5.83786 118.332 5.21307C118.225 4.5881 118.018 3.98231 117.719 3.41647C117.108 2.28088 116.138 1.35651 114.947 0.773256C114.352 0.487814 113.715 0.288093 113.056 0.181163C112.398 0.0742326 111.74 0.0212093 111.076 0.0141395L110.162 0.00176744L109.089 0Z"/><path fill="snow" d="M8.36312 36.9369C8.06466 36.9369 7.76621 36.9337 7.46783 36.9272C6.84773 36.9192 6.22855 36.868 5.61682 36.7734C5.04583 36.6797 4.49276 36.5054 3.97592 36.2564C3.46366 36.009 2.99603 35.6856 2.59255 35.2967C2.18255 34.9132 1.84136 34.4678 1.58198 33.9782C1.32259 33.4886 1.13852 32.9584 1.04369 32.414C0.941422 31.829 0.88657 31.2369 0.879133 30.6439L0.864258 29.7814V7.97206L0.879133 7.12722C0.886571 6.53499 0.94127 5.94415 1.04276 5.35978C1.13721 4.81365 1.31873 4.2844 1.58105 3.79029C1.83937 3.30184 2.17905 2.8563 2.58697 2.4709C2.99397 2.08211 3.46266 1.75648 3.97592 1.50588C4.4919 1.25755 5.04413 1.08434 5.6131 0.992434C6.22763 0.896992 6.84866 0.844852 7.47062 0.837782L8.36405 0.826294H110.158L111.063 0.838666C111.68 0.845773 112.295 0.897175 112.904 0.992434C113.479 1.08522 114.037 1.2602 114.559 1.50941C115.587 2.01505 116.423 2.81381 116.951 3.79383C117.209 4.28442 117.388 4.80942 117.481 5.35094C117.584 5.93999 117.641 6.53546 117.653 7.13253L117.655 7.97295L117.664 9.00336V28.7616L117.655 29.777L117.652 30.6545C117.64 31.2409 117.584 31.8258 117.482 32.4043C117.39 32.9531 117.21 33.4842 116.948 33.9809C116.687 34.4643 116.347 34.9057 115.942 35.2888C115.537 35.6794 115.069 36.0055 114.556 36.2538C114.036 36.5047 113.479 36.6795 112.904 36.7725C112.291 36.868 111.673 36.9192 111.052 36.9263L110.163 36.936L109.089 36.9378L8.36405 36.936L8.36312 36.9369Z"/><path fill="#000" d="M24.5332 19.1652C24.5435 18.377 24.7638 17.6046 25.1719 16.9188C25.5796 16.2339 26.163 15.6581 26.8677 15.2451C26.4205 14.6364 25.8304 14.135 25.144 13.7807C24.4582 13.4269 23.6947 13.2307 22.9147 13.2081C21.2514 13.0419 19.6384 14.1563 18.7915 14.1563C17.9278 14.1563 16.6225 13.224 15.2168 13.2514C14.3076 13.2792 13.4215 13.531 12.6453 13.9822C11.8683 14.434 11.2277 15.0694 10.786 15.8265C8.86986 18.9876 10.2988 23.6333 12.134 26.1891C13.0516 27.4404 14.1254 28.8376 15.5292 28.7881C16.9033 28.7333 17.4165 27.953 19.075 27.953C20.7178 27.953 21.1994 28.7881 22.632 28.7563C24.1065 28.7333 25.0353 27.4996 25.9213 26.2368C26.5812 25.3448 27.0889 24.3594 27.4255 23.317C26.5684 22.9713 25.8374 22.3935 25.3235 21.6556C24.8091 20.9166 24.5344 20.0513 24.5332 19.1652ZM21.8278 11.5281C22.6322 10.6077 23.028 9.42577 22.9314 8.23273C21.7033 8.35557 20.5691 8.91497 19.7546 9.79957C19.3567 10.2317 19.0509 10.7345 18.8566 11.2789C18.6622 11.8235 18.5823 12.3991 18.6214 12.973C19.2358 12.979 19.8437 12.852 20.3989 12.6019C20.9546 12.3514 21.4432 11.9842 21.8278 11.5281ZM41.8998 25.6217H37.2114L36.0855 28.7907H34.0997L38.5408 17.0673H40.6038L45.0449 28.7907H43.0257L41.8998 25.6217ZM37.6967 24.1592H41.4136L39.5812 19.0168H39.53L37.6967 24.1592ZM54.6356 24.5171C54.6356 27.1735 53.1444 28.88 50.8927 28.88C50.3223 28.9085 49.7551 28.7832 49.2564 28.5185C48.757 28.2541 48.3462 27.8611 48.0711 27.3847H48.0283V31.6186H46.1875V20.2434H47.9688V21.6653H48.0023C48.29 21.1912 48.7077 20.8002 49.2109 20.5341C49.7138 20.2681 50.2828 20.1365 50.8573 20.1541C53.1332 20.1541 54.6337 21.8685 54.6337 24.5179L54.6356 24.5171ZM52.7437 24.5171C52.7437 22.7867 51.8056 21.6485 50.3739 21.6485C48.9673 21.6485 48.0218 22.8106 48.0218 24.5171C48.0218 26.2394 48.9673 27.3927 50.3739 27.3927C51.8056 27.3927 52.7437 26.2633 52.7437 24.5171ZM64.5052 24.5171C64.5052 27.1735 63.0139 28.88 60.7632 28.88C60.1928 28.9085 59.6256 28.7832 59.1269 28.5185C58.6277 28.2534 58.2168 27.8611 57.9416 27.3847H57.8988V31.6186H56.058V20.2434H57.8402V21.6653H57.8737C58.1614 21.1912 58.5791 20.8002 59.0823 20.5341C59.5852 20.2681 60.1542 20.1365 60.7288 20.1541C63.0046 20.1541 64.5052 21.8677 64.5052 24.5171ZM62.6132 24.5171C62.6132 22.7867 61.6752 21.6485 60.2435 21.6485C58.8369 21.6485 57.8914 22.8106 57.8914 24.5171C57.8914 26.2394 58.8378 27.3927 60.2435 27.3927C61.6752 27.3927 62.6132 26.2633 62.6132 24.5171ZM71.0297 25.5236C71.1664 26.6866 72.3508 27.4492 73.9703 27.4492C75.5219 27.4492 76.6385 26.6857 76.6385 25.6376C76.6385 24.7274 75.9654 24.183 74.371 23.8092L72.7766 23.4433C70.5174 22.9237 69.4697 21.9163 69.4697 20.2832C69.4697 18.2603 71.3188 16.8711 73.9452 16.8711C76.5446 16.8711 78.3259 18.2603 78.3863 20.2832H76.5279C76.4163 19.1131 75.402 18.407 73.9192 18.407C72.4363 18.407 71.422 19.1211 71.422 20.1612C71.422 20.9901 72.07 21.4779 73.6551 21.8509L75.0106 22.1681C77.5347 22.7372 78.5825 23.7032 78.5825 25.4185C78.5825 27.6118 76.7491 28.9852 73.8336 28.9852C71.1059 28.9852 69.2642 27.6437 69.1452 25.5236H71.0297ZM82.555 18.2205V20.2434H84.2601V21.6326H82.555V26.3446C82.555 27.0763 82.8962 27.4174 83.6465 27.4174C83.8488 27.414 84.0509 27.4005 84.2517 27.3768V28.758C83.9146 28.8182 83.572 28.8454 83.2291 28.8393C81.4134 28.8393 80.705 28.1889 80.705 26.5319V21.6326H79.4006V20.2434H80.705V18.2205H82.5541H82.555ZM85.2483 24.5171C85.2483 21.8279 86.9097 20.1382 89.5017 20.1382C92.102 20.1382 93.7559 21.8279 93.7559 24.5171C93.7559 27.2142 92.1113 28.8968 89.5017 28.8968C86.892 28.8968 85.2483 27.2142 85.2483 24.5171ZM91.8798 24.5171C91.8798 22.6727 90.9929 21.5831 89.5017 21.5831C88.0104 21.5831 87.1244 22.6798 87.1244 24.5171C87.1244 26.3693 88.0104 27.4501 89.5017 27.4501C90.9929 27.4501 91.8798 26.3693 91.8798 24.5171ZM95.2732 20.2434H97.0284V21.698H97.0712C97.1902 21.2438 97.4691 20.8417 97.8623 20.5606C98.2548 20.2797 98.7371 20.1359 99.2281 20.1532C99.4401 20.1524 99.6515 20.1744 99.8584 20.2186V21.8597C99.5908 21.7818 99.3116 21.7459 99.0319 21.7537C98.7643 21.7433 98.4976 21.7882 98.25 21.8854C98.0025 21.9826 97.7802 22.1297 97.5983 22.3166C97.4162 22.5037 97.2786 22.7258 97.1948 22.9679C97.1111 23.2101 97.0835 23.4666 97.1139 23.7199V28.7898H95.2732V20.2434ZM108.345 26.2801C108.098 27.8319 106.513 28.8968 104.485 28.8968C101.876 28.8968 100.256 27.231 100.256 24.5586C100.256 21.8774 101.884 20.1391 104.406 20.1391C106.888 20.1391 108.449 21.7634 108.449 24.3553V24.9563H102.115V25.0623C102.085 25.3767 102.126 25.6935 102.235 25.9916C102.344 26.2898 102.519 26.5625 102.747 26.7918C102.975 27.0205 103.252 27.2007 103.559 27.3202C103.866 27.4395 104.196 27.4953 104.527 27.4837C104.961 27.5226 105.398 27.4263 105.771 27.2098C106.145 26.9927 106.434 26.667 106.598 26.281L108.345 26.2801ZM102.123 23.7288H106.606C106.623 23.4459 106.578 23.1627 106.474 22.8972C106.371 22.6321 106.211 22.3891 106.004 22.1858C105.796 21.9825 105.549 21.8217 105.274 21.713C104.999 21.6052 104.704 21.5529 104.406 21.5592C104.107 21.5575 103.81 21.6123 103.533 21.721C103.255 21.8292 103.003 21.9887 102.791 22.1902C102.579 22.3922 102.41 22.6318 102.295 22.8954C102.181 23.1597 102.122 23.4433 102.123 23.7288ZM37.4661 8.24245C37.8519 8.21594 38.2396 8.27162 38.6003 8.40506C38.9613 8.53871 39.2865 8.74699 39.5523 9.01483C39.8186 9.28286 40.0189 9.6037 40.139 9.95422C40.2592 10.3048 40.2963 10.6763 40.2477 11.0421C40.2477 12.8413 39.2269 13.8762 37.4671 13.8762H35.3325V8.24245H37.4661ZM36.2492 13.0791H37.3639C37.6397 13.0948 37.9158 13.0516 38.1718 12.9527C38.4278 12.8538 38.6574 12.702 38.8439 12.5082C39.0308 12.3138 39.1693 12.0831 39.2511 11.8312C39.3322 11.5796 39.3535 11.314 39.3134 11.0536C39.3508 10.7942 39.3275 10.5302 39.245 10.2804C39.1626 10.0306 39.0231 9.80124 38.8365 9.60869C38.6505 9.41625 38.422 9.2654 38.1674 9.16699C37.9127 9.06858 37.6383 9.02506 37.3639 9.03957H36.2492V13.0791ZM41.2834 11.7491C41.2555 11.4698 41.289 11.1879 41.382 10.9219C41.475 10.6558 41.6254 10.4111 41.8236 10.2034C42.0214 9.9959 42.2627 9.83003 42.532 9.7165C42.8007 9.60338 43.0926 9.54418 43.3873 9.54418C43.682 9.54418 43.973 9.6025 44.2417 9.7165C44.5104 9.8305 44.7521 9.99576 44.9501 10.2034C45.1483 10.4111 45.2987 10.6558 45.3917 10.9219C45.4847 11.1879 45.5181 11.4698 45.4903 11.7491C45.5191 12.0287 45.4861 12.311 45.3934 12.5777C45.3007 12.8445 45.1504 13.0899 44.952 13.2982C44.654 13.6116 44.2595 13.8276 43.8248 13.9153C43.3901 14.0031 42.9373 13.9581 42.5311 13.7869C42.2615 13.6728 42.0199 13.5063 41.8219 13.2983C41.6238 13.0903 41.4737 12.8452 41.381 12.5789C41.2881 12.312 41.2555 12.0292 41.2834 11.7491ZM44.5847 11.7491C44.5847 10.8273 44.1506 10.2892 43.3882 10.2892C42.6259 10.2892 42.1927 10.8282 42.1927 11.7499C42.1927 12.6787 42.6231 13.2134 43.3882 13.2134C44.1534 13.2134 44.5847 12.6743 44.5847 11.7491ZM51.0823 13.8762H50.1694L49.2471 10.7452H49.1774L48.2598 13.8762H47.3552L46.1262 9.62548H47.0187L47.8173 12.8696H47.8833L48.7999 9.62548H49.6441L50.5608 12.8696H50.6305L51.4254 9.62548H52.3058L51.0823 13.8762ZM53.3415 9.62548H54.1884V10.3006H54.2544C54.3659 10.0584 54.5541 9.85511 54.7927 9.71915C55.0316 9.58306 55.3087 9.52208 55.5848 9.54329C55.8019 9.52791 56.0198 9.55916 56.2224 9.63473C56.425 9.7103 56.6071 9.82826 56.7553 9.97985C56.904 10.1319 57.0137 10.313 57.0788 10.5119C57.1438 10.7098 57.1606 10.9192 57.1281 11.1243V13.8762H56.2477V11.3346C56.2477 10.6515 55.9362 10.3121 55.2854 10.3121C55.138 10.3058 54.9909 10.3298 54.8542 10.3826C54.7174 10.4353 54.5944 10.5156 54.4934 10.6179C54.3922 10.7205 54.3155 10.8426 54.2684 10.9758C54.221 11.1092 54.2051 11.2506 54.221 11.3903V13.8771H53.3405V9.62636L53.3415 9.62548ZM58.531 7.96497H59.4114V13.8753H58.531V7.96497ZM60.6358 11.7482C60.6079 11.4687 60.6414 11.1867 60.7343 10.9201C60.8274 10.654 60.9778 10.4093 61.1759 10.2017C61.474 9.88915 61.868 9.67389 62.3022 9.58647C62.7363 9.49906 63.1883 9.54394 63.5941 9.71473C63.8635 9.82803 64.1049 9.99393 64.3025 10.2017C64.5007 10.4093 64.6511 10.654 64.7441 10.9201C64.837 11.1867 64.8706 11.4687 64.8426 11.7482C64.8714 12.0279 64.8382 12.3102 64.7454 12.577C64.6525 12.8438 64.502 13.0891 64.3034 13.2973C64.1054 13.5059 63.8637 13.672 63.5941 13.7852C63.3246 13.8988 63.0331 13.9575 62.7383 13.9575C62.4435 13.9575 62.152 13.8988 61.8825 13.7852C61.6127 13.6711 61.371 13.5047 61.1728 13.2967C60.9746 13.0887 60.8243 12.8436 60.7316 12.5771C60.6386 12.3102 60.606 12.0283 60.6339 11.7482H60.6358ZM63.9371 11.7482C63.9371 10.8265 63.503 10.2883 62.7406 10.2883C61.9783 10.2883 61.545 10.8273 61.545 11.7482C61.545 12.677 61.9755 13.2116 62.7406 13.2116C63.5057 13.2116 63.9371 12.6734 63.9371 11.7482ZM65.7695 12.6743C65.7695 11.909 66.3673 11.468 67.4281 11.4053L68.6367 11.339V10.9723C68.6367 10.5233 68.3252 10.2697 67.7237 10.2697C67.2319 10.2697 66.8917 10.442 66.794 10.7425H65.9415C66.0317 10.0125 66.7522 9.54418 67.7637 9.54418C68.8821 9.54418 69.5124 10.0744 69.5124 10.9732V13.8779H68.6655V13.2805H68.5958C68.4545 13.4944 68.2555 13.6694 68.0203 13.7869C67.7851 13.904 67.5213 13.9595 67.2561 13.9478C67.0692 13.9663 66.8796 13.9469 66.7011 13.8921C66.5218 13.8366 66.3568 13.746 66.2167 13.6261C66.0763 13.5059 65.9648 13.3601 65.8876 13.1957C65.8106 13.0319 65.7704 12.8546 65.7695 12.6752V12.6743ZM68.6367 12.3111V11.9559L67.5471 12.0221C66.9326 12.061 66.6546 12.2607 66.6546 12.6354C66.6546 13.0181 67.0032 13.2408 67.482 13.2408C67.6224 13.254 67.7637 13.2408 67.8985 13.201C68.0333 13.1612 68.1582 13.096 68.2658 13.0093C68.3735 12.9226 68.4617 12.8162 68.5251 12.6964C68.5887 12.5763 68.6272 12.4453 68.6367 12.3111ZM70.6699 11.7482C70.6699 10.4049 71.3941 9.5539 72.5219 9.5539C72.8008 9.54152 73.0769 9.60515 73.3195 9.73771C73.5622 9.87027 73.7593 10.0647 73.8894 10.2998H73.9554V7.96497H74.8358V13.8753H73.9926V13.2037H73.9229C73.7825 13.4371 73.5777 13.6296 73.3307 13.7604C73.0839 13.8912 72.8042 13.9551 72.5219 13.9451C71.3867 13.9451 70.6699 13.095 70.6699 11.7482ZM71.5791 11.7482C71.5791 12.6496 72.0254 13.1922 72.771 13.1922C73.5166 13.1922 73.9712 12.6416 73.9712 11.7517C73.9712 10.8618 73.5082 10.3077 72.771 10.3077C72.0338 10.3077 71.5791 10.8538 71.5791 11.7482ZM78.4774 11.7491C78.4495 11.4698 78.483 11.1879 78.576 10.9219C78.669 10.6558 78.8194 10.4111 79.0176 10.2034C79.3156 9.89092 79.7097 9.67566 80.1438 9.58824C80.5779 9.50082 81.03 9.5457 81.4357 9.7165C81.7051 9.8298 81.9465 9.9957 82.1441 10.2034C82.3423 10.4111 82.4927 10.6558 82.5857 10.9219C82.6787 11.1879 82.7122 11.4698 82.6843 11.7491C82.7131 12.0287 82.6801 12.311 82.5874 12.5777C82.4947 12.8445 82.3444 13.0899 82.146 13.2982C81.948 13.5059 81.7062 13.6729 81.4366 13.786C81.1669 13.8995 80.8753 13.9582 80.5804 13.9584C80.2847 13.9584 79.9937 13.9 79.7241 13.786C79.4545 13.6719 79.213 13.5055 79.0149 13.2974C78.8169 13.0894 78.6668 12.8444 78.5741 12.578C78.4811 12.3111 78.4495 12.0292 78.4774 11.7491ZM81.7787 11.7491C81.7787 10.8273 81.3446 10.2892 80.5822 10.2892C79.8199 10.2892 79.3867 10.8282 79.3867 11.7499C79.3867 12.6787 79.8171 13.2134 80.5822 13.2134C81.3474 13.2134 81.7787 12.6743 81.7787 11.7491ZM83.865 9.62548H84.7119V10.3006H84.7779C84.8894 10.0584 85.0776 9.85511 85.3162 9.71915C85.5551 9.58306 85.8322 9.52208 86.1092 9.54329C86.3263 9.52791 86.5442 9.55916 86.7468 9.63473C86.9494 9.7103 87.1316 9.82826 87.2797 9.97985C87.4275 10.1319 87.5382 10.313 87.6032 10.5119C87.6682 10.7098 87.6851 10.9192 87.6525 11.1243V13.8762H86.7721V11.3346C86.7721 10.6515 86.4607 10.3121 85.8099 10.3121C85.6625 10.3058 85.5153 10.3298 85.3786 10.3826C85.2419 10.4353 85.1188 10.5156 85.0178 10.6179C84.9167 10.7205 84.8399 10.8426 84.7928 10.9758C84.7456 11.1091 84.7295 11.2505 84.7454 11.3903V13.8771H83.865V9.62548ZM92.6263 8.56678V9.64492H93.5923V10.3519H92.6263V12.5382C92.6263 12.9836 92.8188 13.178 93.2567 13.178C93.3688 13.1777 93.4809 13.1712 93.5923 13.1586V13.8576C93.4342 13.8841 93.2743 13.8992 93.1135 13.9009C92.1345 13.9009 91.745 13.5731 91.745 12.753V10.3519H91.0366V9.64492H91.745V8.56678H92.6263ZM94.7953 7.96497H95.6673V10.3077H95.7371C95.854 10.0629 96.0475 9.85833 96.2912 9.7218C96.5343 9.58546 96.8159 9.52403 97.0972 9.54594C97.3132 9.53488 97.529 9.56928 97.7294 9.64669C97.9293 9.72445 98.1096 9.84287 98.2565 9.99399C98.4035 10.1454 98.5133 10.3259 98.5782 10.5225C98.6431 10.7189 98.6618 10.9264 98.633 11.1305V13.8753H97.7526V11.3381C97.7526 10.6594 97.4207 10.3157 96.7988 10.3157C96.5704 10.2978 96.3423 10.352 96.1497 10.47C95.9571 10.5879 95.8107 10.7629 95.7334 10.9679C95.6814 11.1038 95.6617 11.2489 95.6757 11.3929V13.8762H94.7953V7.96497ZM103.766 12.7282C103.647 13.1164 103.388 13.4524 103.034 13.6773C102.681 13.9018 102.256 14.0017 101.833 13.9575C101.539 13.9649 101.247 13.9112 100.978 13.8002C100.708 13.6888 100.466 13.5236 100.27 13.315C100.074 13.1062 99.9281 12.8592 99.8426 12.5912C99.7561 12.3235 99.7329 12.0407 99.7729 11.7632C99.7338 11.4847 99.7579 11.2014 99.8435 10.9325C99.9286 10.6638 100.074 10.4157 100.269 10.2051C100.464 9.99453 100.704 9.82637 100.974 9.71208C101.243 9.59736 101.535 9.53946 101.829 9.54241C103.07 9.54241 103.819 10.3501 103.819 11.6854V11.9779H100.67V12.0248C100.656 12.1809 100.677 12.338 100.73 12.4861C100.784 12.6337 100.87 12.7692 100.981 12.8839C101.093 12.9985 101.229 13.09 101.379 13.1524C101.53 13.2143 101.694 13.2452 101.857 13.2434C102.068 13.2673 102.281 13.2311 102.47 13.14C102.659 13.049 102.815 12.905 102.919 12.7282H103.766ZM100.67 11.3585H102.923C102.934 11.2162 102.913 11.0721 102.863 10.9378C102.813 10.8033 102.733 10.6802 102.63 10.5766C102.526 10.4729 102.401 10.391 102.263 10.336C102.124 10.2813 101.975 10.2545 101.825 10.2573C101.672 10.2556 101.522 10.283 101.38 10.3378C101.239 10.3924 101.111 10.4736 101.004 10.5764C100.897 10.6789 100.81 10.8008 100.754 10.936C100.696 11.0703 100.667 11.2143 100.67 11.3593V11.3585Z"/></g></g><defs><clipPath id="clip0_46_781"><rect width="119" height="38" fill="#fff"/></clipPath></defs></svg>