<svg xmlns="http://www.w3.org/2000/svg" width="119" height="38" fill="none" viewBox="0 0 119 38"><g clip-path="url(#clip0_46_790)"><path fill="#fff" d="M114.38 37.7623H4.78858C3.62732 37.7579 2.51479 37.2592 1.69365 36.3749C0.872513 35.4907 0.409383 34.2928 0.405273 33.0423V4.71995C0.409383 3.46951 0.872513 2.27154 1.69365 1.38733C2.51479 0.503125 3.62732 0.00442476 4.78858 0L114.38 0C115.541 0.00442476 116.654 0.503125 117.475 1.38733C118.296 2.27154 118.759 3.46951 118.763 4.71995V33.0423C118.759 34.2928 118.296 35.4907 117.475 36.3749C116.654 37.2592 115.541 37.7579 114.38 37.7623Z"/><path fill="#A6A6A6" d="M114.38 0H4.78858C3.62732 0.00442476 2.51479 0.503125 1.69365 1.38733C0.872513 2.27154 0.409383 3.46951 0.405273 4.71995V33.0423C0.409383 34.2928 0.872513 35.4907 1.69365 36.3749C2.51479 37.2592 3.62732 37.7579 4.78858 37.7623H114.38C115.541 37.7579 116.654 37.2592 117.475 36.3749C118.296 35.4907 118.759 34.2928 118.763 33.0423V4.71995C118.759 3.46951 118.296 2.27154 117.475 1.38733C116.654 0.503125 115.541 0.00442476 114.38 0ZM114.38 0.755581C116.411 0.755581 118.063 2.53451 118.063 4.72084V33.0423C118.063 35.2286 116.411 37.0076 114.38 37.0076H4.78858C2.75819 37.0076 1.10614 35.2286 1.10614 33.0423V4.71995C1.10614 2.53363 2.75819 0.754698 4.78858 0.754698H114.38V0.755581Z"/><path fill="#000" d="M41.9789 9.67055C41.9789 10.4615 41.7614 11.0916 41.3256 11.5617C40.8308 12.1202 40.1857 12.4004 39.3929 12.4004C38.6338 12.4004 37.9879 12.1167 37.4569 11.5502C37.1964 11.2768 36.9912 10.9483 36.8541 10.5855C36.717 10.2227 36.6509 9.83327 36.66 9.44167C36.66 8.60302 36.9251 7.90046 37.4569 7.33311C37.9887 6.76576 38.6338 6.48297 39.3929 6.48297C39.7696 6.48297 40.1299 6.56251 40.4729 6.72069C40.816 6.87888 41.0901 7.09009 41.2953 7.35344L40.8332 7.85186C40.4852 7.40381 40.0051 7.18023 39.3929 7.18023C38.8389 7.18023 38.3605 7.38967 37.9559 7.80855C37.5513 8.22744 37.3494 8.77269 37.3494 9.44255C37.3494 10.1124 37.5513 10.6568 37.9559 11.0766C38.3605 11.4963 38.8389 11.7049 39.3929 11.7049C39.9805 11.7049 40.4705 11.4946 40.8619 11.0721C41.1164 10.7973 41.2633 10.4155 41.3035 9.92506H39.3929V9.2446H41.942C41.9666 9.39218 41.9789 9.53446 41.9789 9.67232V9.67055Z"/><path fill="#000" d="M41.9781 9.67056H41.8903C41.8895 10.4438 41.6802 11.0439 41.2625 11.4946L41.2617 11.4954C40.7824 12.0345 40.1669 12.3032 39.3922 12.304C38.6535 12.3032 38.0347 12.0319 37.5185 11.4813C37.0023 10.9307 36.7487 10.2565 36.7471 9.43991C36.7454 8.62335 37.0031 7.94995 37.5185 7.39851C38.0339 6.84707 38.6535 6.57577 39.3922 6.57488C39.7516 6.57362 40.1075 6.65182 40.4377 6.80465C40.7701 6.95842 41.0319 7.16079 41.228 7.41177L41.2953 7.35079L41.233 7.28363L40.7709 7.78205L40.8325 7.84833L40.8998 7.78823C40.5354 7.31809 40.0241 7.08126 39.3922 7.08214C39.1147 7.07864 38.8393 7.13484 38.5823 7.24744C38.3252 7.36004 38.0916 7.52677 37.8952 7.73786C37.4775 8.17353 37.2616 8.74972 37.2616 9.43902C37.2616 10.1283 37.4726 10.7036 37.8952 11.1402C38.0919 11.3509 38.3255 11.5173 38.5825 11.6299C38.8395 11.7425 39.1147 11.7989 39.3922 11.7959C39.9986 11.7968 40.5165 11.575 40.9236 11.1358C41.1952 10.8424 41.3495 10.4359 41.3897 9.92949L41.3979 9.82698H39.48V9.33563H41.9412V9.24107L41.855 9.25786C41.8782 9.39342 41.89 9.53095 41.8903 9.66879H41.9781H42.066C42.0656 9.51971 42.0529 9.37096 42.0282 9.22428L42.0151 9.14651H39.3052V9.92154V10.0161H41.3035V9.92154L41.2165 9.91358C41.178 10.389 41.0376 10.746 40.8005 11.0023C40.4238 11.4062 39.9617 11.6059 39.393 11.6068C38.8595 11.6059 38.4073 11.4088 38.0175 11.005C37.6277 10.6011 37.4389 10.0886 37.4381 9.43902C37.4373 8.78949 37.631 8.27516 38.0175 7.87307C38.404 7.47098 38.8595 7.27302 39.393 7.27214C39.9855 7.27391 40.4336 7.48423 40.766 7.91019L40.8275 7.98884L41.3569 7.41795L41.4135 7.35698L41.3618 7.2907C41.1468 7.01409 40.8595 6.79493 40.5067 6.63144C40.1549 6.46867 39.7758 6.38536 39.393 6.38665C39.0221 6.37942 38.6537 6.45357 38.3103 6.60459C37.9669 6.75561 37.6556 6.98033 37.3954 7.26507C36.8497 7.84921 36.5723 8.58005 36.5723 9.44079C36.5723 10.3015 36.848 11.0333 37.3954 11.6165C37.6557 11.9011 37.967 12.1256 38.3104 12.2765C38.6538 12.4274 39.0221 12.5014 39.393 12.494C40.2046 12.4949 40.8784 12.2042 41.3889 11.6271L41.3257 11.5617L41.3881 11.628C41.8419 11.1393 42.0676 10.4792 42.0668 9.67056H41.9781ZM46.0192 7.30395H43.6236V9.09967H45.7837V9.78014H43.6236V11.5767H46.0192V12.2722H42.9482V6.60758H46.0192V7.30307V7.30395Z"/><path fill="#000" d="M46.0193 7.30482V7.21026H43.5359V9.1951H45.696V9.68645H43.5359V11.6713H45.9315V12.1785H43.0361V6.703H45.9315V7.30482H46.0193H46.1072V6.60933V6.51477H42.8613V12.3677H46.1072V11.5776V11.483H43.7116V9.87556H45.8716V9.10054V9.00598H43.7116V7.39938H46.1072V7.30482H46.0193ZM48.8696 12.2731H48.1933V7.30393H46.7243V6.60844H50.3395V7.30393H48.8704V12.2722L48.8696 12.2731Z"/><path fill="#000" d="M48.87 12.2731V12.1785H48.2815V7.21026H46.8125V6.703H50.252V7.21026H48.783V12.2731H48.87H48.9586V7.39938H50.4276V6.60933V6.51477H46.6377V7.30482V7.39938H48.1067V12.3677H48.8708H48.9586V12.2731H48.87ZM52.9545 12.2731V6.60844H53.63V12.2731H52.9545Z"/><path fill="#000" d="M52.955 12.2731H53.0428V6.703H53.5434V12.1785H52.955V12.2731V12.3677H53.6304H53.7182V6.51477H52.955H52.8672V12.3677H52.955V12.2731ZM56.6284 12.2731H55.9522V7.30393H54.4831V6.60844H58.0983V7.30393H56.6292V12.2722L56.6284 12.2731Z"/><path fill="#000" d="M56.6294 12.2731V12.1786H56.041V7.21028H54.572V6.70302H58.0115V7.21028H56.5424V12.2731H56.6294H56.7181V7.39939H58.1871V6.60935V6.51479H54.3955V7.30483V7.39939H55.8645V12.3677H56.6286H56.7164V12.2731H56.6294ZM61.5831 11.0668C61.9729 11.491 62.4489 11.7031 63.0127 11.7031C63.2788 11.7089 63.5431 11.6554 63.789 11.5459C64.0349 11.4364 64.2571 11.2733 64.4416 11.0668C64.8314 10.6426 65.0267 10.1 65.0267 9.44079C65.0267 8.78153 64.8314 8.23893 64.4416 7.81474C64.2571 7.60828 64.0349 7.44517 63.789 7.33567C63.5431 7.22617 63.2788 7.17264 63.0127 7.17846C62.4498 7.17846 61.9729 7.39056 61.5831 7.81474C61.1933 8.23893 60.9996 8.78153 60.9996 9.44079C60.9996 10.1 61.1949 10.6426 61.5831 11.0668ZM64.9414 11.5414C64.4243 12.114 63.7809 12.4004 63.0127 12.4004C62.2446 12.4004 61.6003 12.114 61.0849 11.5414C60.5696 10.9687 60.3102 10.2688 60.3102 9.44167C60.3102 8.61451 60.5679 7.91372 61.0849 7.34107C61.3329 7.06109 61.6325 6.84004 61.9645 6.69211C62.2965 6.54418 62.6536 6.47264 63.0127 6.48209C63.3718 6.47347 63.7285 6.54574 64.0601 6.69427C64.3916 6.8428 64.6907 7.06432 64.9381 7.3446C65.4568 7.9199 65.7169 8.61804 65.7169 9.44079C65.7169 10.2688 65.4568 10.9687 64.9414 11.5414Z"/><path fill="#000" d="M61.5832 11.0668L61.5208 11.1331C61.7136 11.3483 61.9455 11.5185 62.2021 11.6328C62.4587 11.7471 62.7344 11.8033 63.012 11.7977C63.5955 11.7985 64.1003 11.575 64.5032 11.1331C64.9062 10.6912 65.1138 10.1195 65.1138 9.44077C65.1138 8.76207 64.9103 8.1903 64.5032 7.74844C64.3105 7.5332 64.0786 7.36309 63.822 7.24874C63.5654 7.13439 63.2897 7.07827 63.012 7.08389C62.7344 7.07827 62.4587 7.13439 62.2021 7.24874C61.9455 7.36309 61.7136 7.5332 61.5208 7.74844C61.1154 8.1903 60.9102 8.76207 60.9119 9.44077C60.9135 10.1195 61.1154 10.6912 61.5208 11.1331L61.5832 11.0668L61.6456 11.0005C61.2738 10.5931 61.0875 10.0806 61.0867 9.44077C61.0859 8.80096 61.273 8.2884 61.6456 7.881C62.0182 7.47361 62.4696 7.27389 63.012 7.27212C63.5545 7.27035 64.0042 7.47272 64.3785 7.881C64.7527 8.28928 64.9374 8.80096 64.9374 9.44077C64.9374 10.0806 64.7511 10.5931 64.3785 11.0005C64.0059 11.4079 63.5545 11.6077 63.012 11.6085C62.4696 11.6094 62.0206 11.4079 61.6456 11.0005L61.5832 11.0668ZM64.9415 11.5414L64.8791 11.476C64.376 12.031 63.7613 12.3049 63.0128 12.3058C62.2644 12.3067 61.6489 12.031 61.1474 11.476C60.646 10.9192 60.3981 10.2485 60.3973 9.44165C60.3887 9.06565 60.4507 8.69163 60.5796 8.34206C60.7085 7.99248 60.9016 7.67455 61.1474 7.40733C61.6489 6.85147 62.2644 6.5784 63.0128 6.57751C63.7564 6.5784 64.3703 6.85412 64.8758 7.41175C65.3814 7.96937 65.6284 8.641 65.6292 9.44254C65.6284 10.2494 65.3797 10.9201 64.8791 11.4769L64.9415 11.5414L65.0047 11.6077C65.2655 11.3224 65.4707 10.9838 65.608 10.6118C65.7453 10.2398 65.8119 9.84189 65.804 9.44165C65.8048 8.5977 65.5348 7.8704 65.0006 7.27919C64.4663 6.68798 63.7974 6.38663 63.012 6.38751C62.2266 6.3884 61.552 6.68444 61.021 7.27565C60.4884 7.86421 60.2209 8.59328 60.2217 9.44165C60.2225 10.29 60.4892 11.02 61.021 11.6077C61.552 12.198 62.2233 12.4958 63.012 12.4949C63.383 12.5038 63.7517 12.4296 64.0946 12.2768C64.4375 12.1241 64.748 11.8962 65.0047 11.6077L64.9406 11.5423L64.9415 11.5414ZM66.6649 12.2731V6.60844H67.4873L70.0437 11.0147H70.0724L70.0437 9.92328V6.60844H70.7199V12.2731H70.0141L67.3403 7.653H67.3116L67.3403 8.74528V12.2731H66.6649Z"/><path fill="#000" d="M66.6646 12.2731H66.7524V6.703H67.4385L69.9949 11.1092H70.0729H70.1632L70.132 9.92151V6.703H70.6334V12.1785H70.0639L67.3892 7.55845H67.3113H67.221L67.2522 8.74617V12.1785H66.6646V12.2731V12.3677H67.34H67.4278V8.74351L67.3991 7.65035L67.3113 7.653V7.74756H67.34V7.653L67.2653 7.70337L69.9654 12.3677H70.7196H70.8074V6.51477H70.0434H69.9555V9.92505L69.9843 11.0182L70.0721 11.0156V10.921H70.0434V11.0156L70.118 10.9652L67.5353 6.51477H66.6646H66.5768V12.3677H66.6646V12.2731ZM94.1593 28.3215H95.7949V16.5203H94.1593V28.3215ZM108.895 20.771L107.02 25.8877H106.963L105.017 20.771H103.254L106.173 27.9229L104.509 31.9005H106.216L110.713 20.771H108.895ZM99.6169 26.9809C99.0802 26.9809 98.3333 26.6928 98.3333 25.9787C98.3333 25.0676 99.2648 24.7185 100.067 24.7185C100.787 24.7185 101.125 24.8856 101.563 25.1136C101.502 25.6251 101.272 26.0959 100.914 26.439C100.557 26.7821 100.096 26.9746 99.6169 26.9809ZM99.8139 20.512C98.6296 20.512 97.4035 21.0741 96.8955 22.3192L98.3473 22.9723C98.6575 22.3192 99.2353 22.1071 99.8426 22.1071C100.688 22.1071 101.548 22.6542 101.563 23.6254V23.7464C101.266 23.5644 100.632 23.2913 99.8565 23.2913C98.2915 23.2913 96.6977 24.2175 96.6977 25.9487C96.6977 27.5279 97.9813 28.545 99.4191 28.545C100.519 28.545 101.125 28.0139 101.506 27.3909H101.563V28.302H103.142V23.7774C103.142 21.6821 101.689 20.512 99.8139 20.512ZM89.7038 22.207H87.3771V18.1613H89.7038C90.9266 18.1613 91.6209 19.2518 91.6209 20.1842C91.6209 21.0988 90.9266 22.207 89.7038 22.207ZM89.6619 16.5194H85.7415V28.3215H87.3771V23.8498H89.6619C91.4748 23.8498 93.2574 22.4359 93.2574 20.1842C93.2574 17.9324 91.4748 16.5185 89.6619 16.5185V16.5194ZM68.2863 26.9826C67.1562 26.9826 66.2099 25.9637 66.2099 24.5639C66.2099 23.1499 67.1562 22.1151 68.2863 22.1151C69.4024 22.1151 70.2781 23.149 70.2781 24.5639C70.2781 25.9637 69.4024 26.9826 68.2863 26.9826ZM70.1648 21.4311H70.1082C69.7413 20.9601 69.0347 20.5341 68.1451 20.5341C66.2805 20.5341 64.5718 22.298 64.5718 24.5648C64.5718 26.8156 66.2805 28.5645 68.1451 28.5645C69.0347 28.5645 69.7413 28.1385 70.1082 27.6525H70.1648V28.2304C70.1648 29.7672 69.4024 30.5882 68.173 30.5882C67.1701 30.5882 66.5489 29.8123 66.2944 29.1584L64.8681 29.7973C65.2776 30.8622 66.365 32.1701 68.173 32.1701C70.0942 32.1701 71.7184 30.9532 71.7184 27.9874V20.778H70.1648V21.432V21.4311ZM72.8485 28.3206H74.4866V16.5194H72.8485V28.3206ZM76.9019 24.4269C76.8592 22.8751 78.018 22.085 78.851 22.085C79.501 22.085 80.0517 22.435 80.2347 22.937L76.9019 24.4269ZM81.9869 23.089C81.6766 22.1911 80.7296 20.5341 78.7944 20.5341C76.8731 20.5341 75.2777 22.1619 75.2777 24.5497C75.2777 26.8006 76.8592 28.5654 78.9782 28.5654C80.6877 28.5654 81.6766 27.4395 82.0862 26.7856L80.8149 25.8727C80.3914 26.5417 79.812 26.9826 78.9782 26.9826C78.1444 26.9826 77.5518 26.5717 77.1702 25.7657L82.1559 23.545L81.9869 23.089ZM42.2638 21.766V23.469H46.0489C45.9356 24.4269 45.6393 25.1268 45.1871 25.6137C44.6364 26.2067 43.7747 26.8607 42.2638 26.8607C39.9331 26.8607 38.1111 24.8378 38.1111 22.3281C38.1111 19.8183 39.9331 17.7955 42.2638 17.7955C43.5211 17.7955 44.4387 18.3284 45.1165 19.0124L46.2327 17.8114C45.2864 16.8375 44.0291 16.0925 42.2638 16.0925C39.0714 16.0925 36.3877 18.8913 36.3877 22.329C36.3877 25.7666 39.0714 28.5645 42.2638 28.5645C43.9873 28.5645 45.2864 27.9565 46.3033 26.8156C47.3488 25.6897 47.6738 24.1088 47.6738 22.8309C47.6738 22.435 47.6459 22.0709 47.5893 21.766H42.2638ZM51.9767 26.9826C50.8466 26.9826 49.8716 25.9787 49.8716 24.5489C49.8716 23.104 50.8466 22.1151 51.9767 22.1151C53.1068 22.1151 54.0809 23.104 54.0809 24.5489C54.0809 25.9787 53.106 26.9826 51.9767 26.9826ZM51.9767 20.5341C49.9143 20.5341 48.2335 22.222 48.2335 24.5497C48.2335 26.8616 49.9143 28.5654 51.9767 28.5654C54.0391 28.5654 55.7199 26.8616 55.7199 24.5497C55.7199 22.2229 54.0391 20.5341 51.9767 20.5341ZM60.1417 26.9826C59.0116 26.9826 58.0375 25.9787 58.0375 24.5489C58.0375 23.104 59.0125 22.1151 60.1417 22.1151C61.271 22.1151 62.246 23.104 62.246 24.5489C62.246 25.9787 61.271 26.9826 60.1417 26.9826ZM60.1417 20.5341C58.0793 20.5341 56.3986 22.222 56.3986 24.5497C56.3986 26.8616 58.0793 28.5654 60.1417 28.5654C62.2041 28.5654 63.8849 26.8616 63.8849 24.5497C63.8849 22.2229 62.2041 20.5341 60.1417 20.5341Z"/><path fill="url(#paint0_linear_46_790)" d="M9.61951 30.5785L9.55468 30.5114C9.29944 30.2206 9.14926 29.769 9.14926 29.1849V29.3228V8.44308V8.58094C9.14926 7.9482 9.32489 7.47099 9.61869 7.18555L20.4813 18.8825L9.61951 30.5785Z"/><path fill="url(#paint1_linear_46_790)" d="M24.1014 22.921L24.1842 22.8707L28.474 20.246C28.8827 19.9959 29.156 19.6919 29.2914 19.3711C29.156 19.6919 28.8827 19.995 28.474 20.246L24.1842 22.8716L24.1014 22.921ZM24.1022 22.7832L20.4805 18.8833L24.1014 14.9835L28.4732 17.6576C29.028 17.9969 29.3398 18.4353 29.3923 18.8824C29.3406 19.3305 29.0288 19.7688 28.4732 20.1082L24.1022 22.7832Z"/><path fill="url(#paint2_linear_46_790)" d="M10.3952 31.023C10.0915 31.023 9.82727 30.917 9.62046 30.7164C9.82727 30.917 10.0932 31.0239 10.396 31.0239L10.3952 31.023ZM10.3952 30.8851C10.0915 30.8851 9.82727 30.7791 9.62046 30.5785L20.4823 18.8824L24.104 22.7823L11.3784 30.5688C11.0263 30.7835 10.6923 30.8851 10.3952 30.8851Z"/><path fill="url(#paint3_linear_46_790)" d="M20.4808 18.8825L9.61816 7.18554C9.82498 6.98493 10.0892 6.87889 10.3921 6.87889C10.6892 6.87889 11.0232 6.9814 11.3761 7.19614L24.1017 14.9817L20.4808 18.8816V18.8825ZM11.3761 7.05828C11.0232 6.84266 10.6892 6.74103 10.3921 6.74103C10.69 6.74103 11.0232 6.84266 11.3761 7.05828Z"/><path fill="#000" d="M10.4747 31.0213C10.7504 31.0045 11.0557 30.902 11.3766 30.7067C11.0557 30.9029 10.7504 31.0045 10.4747 31.0213Z"/><path fill="url(#paint4_linear_46_790)" d="M10.3944 31.023C10.0907 31.023 9.82563 30.9161 9.61964 30.7155L9.56055 30.6536L9.62046 30.5776C9.82727 30.7782 10.0915 30.8852 10.3952 30.8843C10.6915 30.8843 11.0255 30.7826 11.3776 30.5679L24.1032 22.7814L24.1844 22.8689L24.1015 22.9193L11.3767 30.7049C11.0558 30.9011 10.7505 31.0027 10.4748 31.0195L10.3944 31.0212V31.023Z"/><path fill="url(#paint5_linear_46_790)" d="M9.55484 30.6492C9.2996 30.3585 9.14941 29.9078 9.14941 29.3227V29.1849C9.14941 29.769 9.30042 30.2206 9.55484 30.5113L9.61967 30.5785L9.55484 30.6492Z"/><path fill="#000" d="M29.291 19.3703C29.3569 19.2177 29.3913 19.0516 29.392 18.8834C29.392 19.0469 29.3583 19.2103 29.291 19.3703Z"/><path fill="url(#paint6_linear_46_790)" d="M24.1828 22.8698L24.1016 22.7823L28.4726 20.1073C29.0273 19.768 29.3392 19.3296 29.3917 18.8834C29.3917 19.0469 29.3581 19.2112 29.2908 19.3703C29.1546 19.6911 28.8821 19.9951 28.4734 20.2452L24.1836 22.8698H24.1828Z"/><path fill="#404040" d="M29.3935 18.8825C29.3935 18.3885 29.0865 17.8953 28.4743 17.5206C29.0874 17.8953 29.3943 18.3885 29.3935 18.8825Z"/><path fill="url(#paint7_linear_46_790)" d="M29.3925 18.8825C29.3408 18.4353 29.029 17.997 28.4734 17.6576L24.1016 14.9835L24.1828 14.896L28.4726 17.5206C29.0848 17.8953 29.3909 18.3893 29.3917 18.8833L29.3925 18.8825Z"/><path fill="#404040" d="M9.15332 8.27514C9.2042 7.3057 9.69416 6.74542 10.3868 6.74188C10.0864 6.74365 9.82464 6.8497 9.62029 7.04853L9.61783 7.05118L9.55546 7.11746C9.32566 7.37993 9.1804 7.7723 9.15414 8.27602L9.15332 8.27514Z"/><path fill="url(#paint8_linear_46_790)" d="M9.14941 8.58092V8.44306L9.15352 8.28488C9.17978 7.77144 9.32504 7.37906 9.55566 7.1166L9.61967 7.18553C9.32504 7.47097 9.15024 7.94818 9.15024 8.58092H9.14941Z"/><path fill="url(#paint9_linear_46_790)" d="M24.1032 14.9826L11.3776 7.19702C11.0247 6.98139 10.6907 6.87976 10.3936 6.87976C10.0908 6.87976 9.82649 6.98581 9.61968 7.18642L9.55566 7.11749L9.61804 7.05121C9.82485 6.8506 10.0867 6.74367 10.387 6.7419C10.6874 6.74014 11.0247 6.84442 11.3776 7.05916L24.1853 14.8951L24.104 14.9826H24.1032Z"/></g><defs><linearGradient id="paint0_linear_46_790" x1="278.668" x2="-50.454" y1="224.857" y2="384.312" gradientUnits="userSpaceOnUse"><stop stop-color="#00A0FF"/><stop offset=".007" stop-color="#00A1FF"/><stop offset=".26" stop-color="#00BEFF"/><stop offset=".512" stop-color="#00D2FF"/><stop offset=".76" stop-color="#00DFFF"/><stop offset="1" stop-color="#00E3FF"/></linearGradient><linearGradient id="paint1_linear_46_790" x1="346.993" x2="116.631" y1="184.605" y2="184.605" gradientUnits="userSpaceOnUse"><stop stop-color="#FFE000"/><stop offset=".409" stop-color="#FFBD00"/><stop offset=".775" stop-color="orange"/><stop offset="1" stop-color="#FF9C00"/></linearGradient><linearGradient id="paint2_linear_46_790" x1="402.481" x2="112.045" y1="308.067" y2="655.976" gradientUnits="userSpaceOnUse"><stop stop-color="#FF3A44"/><stop offset="1" stop-color="#C31162"/></linearGradient><linearGradient id="paint3_linear_46_790" x1="130.352" x2="260.018" y1="9.024" y2="164.578" gradientUnits="userSpaceOnUse"><stop stop-color="#32A071"/><stop offset=".069" stop-color="#2DA771"/><stop offset=".476" stop-color="#15CF74"/><stop offset=".801" stop-color="#06E775"/><stop offset="1" stop-color="#00F076"/></linearGradient><linearGradient id="paint4_linear_46_790" x1="404.654" x2="233.242" y1="219.079" y2="523.232" gradientUnits="userSpaceOnUse"><stop stop-color="#CC2E36"/><stop offset="1" stop-color="#9C0E4E"/></linearGradient><linearGradient id="paint5_linear_46_790" x1="20.333" x2="5.047" y1="42.81" y2="47.72" gradientUnits="userSpaceOnUse"><stop stop-color="#008DE0"/><stop offset=".007" stop-color="#008DE0"/><stop offset=".26" stop-color="#00A7E0"/><stop offset=".512" stop-color="#00B8E0"/><stop offset=".76" stop-color="#00C4E0"/><stop offset="1" stop-color="#00C7E0"/></linearGradient><linearGradient id="paint6_linear_46_790" x1="217.923" x2="81.177" y1="104.062" y2="104.062" gradientUnits="userSpaceOnUse"><stop stop-color="#E0C500"/><stop offset=".409" stop-color="#E0A600"/><stop offset=".775" stop-color="#E09100"/><stop offset="1" stop-color="#E08900"/></linearGradient><linearGradient id="paint7_linear_46_790" x1="217.958" x2="81.191" y1="100.098" y2="100.098" gradientUnits="userSpaceOnUse"><stop stop-color="#FFE840"/><stop offset=".409" stop-color="#FFCE40"/><stop offset=".775" stop-color="#FFBC40"/><stop offset="1" stop-color="#FFB540"/></linearGradient><linearGradient id="paint8_linear_46_790" x1="20.333" x2="4.921" y1="21.313" y2="26.04" gradientUnits="userSpaceOnUse"><stop stop-color="#40B8FF"/><stop offset=".007" stop-color="#40B9FF"/><stop offset=".26" stop-color="#40CEFF"/><stop offset=".512" stop-color="#40DDFF"/><stop offset=".76" stop-color="#40E7FF"/><stop offset="1" stop-color="#40EAFF"/></linearGradient><linearGradient id="paint9_linear_46_790" x1="130.835" x2="207.355" y1="8.299" y2="144.131" gradientUnits="userSpaceOnUse"><stop stop-color="#65B895"/><stop offset=".069" stop-color="#62BD95"/><stop offset=".476" stop-color="#50DB97"/><stop offset=".801" stop-color="#44ED98"/><stop offset="1" stop-color="#40F498"/></linearGradient><clipPath id="clip0_46_790"><rect width="119" height="38" fill="#fff"/></clipPath></defs></svg>