<svg xmlns="http://www.w3.org/2000/svg" width="156.503" height="51.074" viewBox="0 0 156.503 51.074"><g id="SirenMD-Horizontalsvg" transform="translate(-1 -0.503)" style="mix-blend-mode:luminosity;isolation:isolate"><path id="Path_23" fill="#070707" d="M53.819,22.42a1.973,1.973,0,0,1-.864-.2,1.938,1.938,0,0,1-1.068-1.868l.414-6.421A14.377,14.377,0,0,1,67.525.531l3.543.233a9.5,9.5,0,0,1,6.211,16.1,9.4,9.4,0,0,1-7.355,2.843c-1.92-.158-6.917-.584-7.162-.584a11.188,11.188,0,0,0-7.676,2.825,1.95,1.95,0,0,1-1.267.473Zm.216-8.406-.42,6.421a.2.2,0,0,0,.117.2.193.193,0,0,0,.222,0,12.73,12.73,0,0,1,8.919-3.246c.309,0,6.9.584,7.18.584a7.658,7.658,0,0,0,5.983-2.335A7.764,7.764,0,0,0,70.957,2.48l-3.543-.228A12.632,12.632,0,0,0,54.035,14.015Z" data-name="Path 23" transform="translate(-21.181 0)"/><path id="Path_24" fill="#010101" d="M38.539,80.64v2.744q-1.605.158-3.251.286c-4.9.385-10.058.584-15.375.584s-10.478-.2-15.375-.584L1,83.355V80.64A1.5,1.5,0,0,1,2.273,79H37.3A1.484,1.484,0,0,1,38.539,80.64Z" data-name="Path 24" transform="translate(0 -32.676)"/><path id="Path_25" fill="#010101" d="M34.386,45.66a5.767,5.767,0,0,0-3.03-4.273,7.262,7.262,0,0,0-3.537-.858H19.361a7.244,7.244,0,0,0-3.59.893,5.341,5.341,0,0,0-2.79,3.625c-.28,1.407-.537,2.843-.788,4.232-.111.584-.216,1.167-.327,1.8-.379,2.055-1.086,6.333-1.716,10.239H11.9c.625-3.818,1.3-7.927,1.675-9.923.111-.584.216-1.2.321-1.8.251-1.378.508-2.8.788-4.2a3.607,3.607,0,0,1,1.973-2.434,5.446,5.446,0,0,1,2.744-.677h8.441a5.452,5.452,0,0,1,2.679.648,4.01,4.01,0,0,1,2.154,3.035c.479,2.749,1.681,9.923,2.592,15.352h1.751C36.108,55.823,34.877,48.462,34.386,45.66Z" data-name="Path 25" transform="translate(-3.809 -16.662)"/><path id="Path_26" fill="#2f67b2" d="M44.229,63.393H34.44V45.531h2.4a8.172,8.172,0,0,1,2.7.3c1.378.409,2,1.751,2.253,3.164C42.25,51.549,43.424,58.566,44.229,63.393Z" data-name="Path 26" transform="translate(-13.92 -18.739)"/><path id="Path_27" fill="#010101" d="M85.741,55.6c4.874,1.062,7.121,2.843,7.121,6.217,0,3.777-3.123,6.217-7.466,6.217a12.8,12.8,0,0,1-8.937-3.5L78,62.737a10.408,10.408,0,0,0,7.5,3.094c2.919,0,4.874-1.535,4.874-3.753,0-2.061-1.092-3.216-5.685-4.185-5.032-1.1-7.32-2.744-7.32-6.351,0-3.5,3.03-5.995,7.186-5.995a11.418,11.418,0,0,1,7.688,2.685l-1.448,1.9a9.6,9.6,0,0,0-6.31-2.37c-2.843,0-4.67,1.559-4.67,3.561S80.931,54.565,85.741,55.6Z" data-name="Path 27" transform="translate(-31.412 -18.749)"/><path id="Path_28" fill="#010101" d="M108.73,47.936V45.28h2.749v2.656Zm.158,19.677V51.462h2.4V67.613Z" data-name="Path 28" transform="translate(-44.845 -18.639)"/><path id="Path_29" fill="#010101" d="M121.285,71.818h-2.4V55.666h2.4v4.22a6.906,6.906,0,0,1,6.59-4.5v2.592h-.187c-3.5,0-6.421,2.533-6.421,7.407Z" data-name="Path 29" transform="translate(-49.07 -22.844)"/><path id="Path_30" fill="#010101" d="M141.9,70.068a6.684,6.684,0,0,0,5.1-2.282l1.512,1.348a8.318,8.318,0,0,1-6.649,3.03,8.036,8.036,0,0,1-8.061-8.435c0-4.67,3.281-8.429,7.746-8.429,4.781,0,7.53,3.806,7.53,8.557a5.836,5.836,0,0,1-.035.747H136.217A5.659,5.659,0,0,0,141.9,70.068Zm4.717-7.25c-.245-2.919-1.932-5.5-5.154-5.5-2.808,0-4.932,2.335-5.254,5.5Z" data-name="Path 30" transform="translate(-55.281 -22.811)"/><path id="Path_31" fill="#010101" d="M165.715,71.778h-2.4V55.627h2.4V58.44a6.112,6.112,0,0,1,5.528-3.152c3.905,0,6.187,2.621,6.187,6.462V71.778h-2.4V62.345c0-3-1.629-4.874-4.471-4.874a4.716,4.716,0,0,0-4.839,5.061Z" data-name="Path 31" transform="translate(-67.566 -22.804)"/><path id="Path_32" fill="#2f67b2" d="M203.386,62.576h-.128l-6.841-10.25v15.62H192.64V46.08h4.086l6.654,10.338,6.649-10.338h4.086V67.946h-3.847V52.267Z" data-name="Path 32" transform="translate(-79.775 -18.972)"/><path id="Path_33" fill="#2f67b2" d="M243.372,67.946H235.2V46.08h8.172c6.876,0,11.622,4.716,11.622,10.9S250.26,67.946,243.372,67.946Zm0-18.37h-4.308V64.45h4.308c4.594,0,7.588-3.094,7.588-7.407A7.178,7.178,0,0,0,243.372,49.577Z" data-name="Path 33" transform="translate(-97.492 -18.972)"/><path id="Path_34" fill="#2f67b2" d="M76.414,16.355a.9.9,0,0,1-.916.887H67.267a.887.887,0,0,1-.63-.269.852.852,0,0,1-.257-.642.893.893,0,0,1,.887-.881H75.5a.9.9,0,0,1,.916.9Z" data-name="Path 34" transform="translate(-27.216 -6.222)"/><path id="Path_35" fill="#2f67b2" d="M78.8,22.659a.9.9,0,0,1-.753.414H69.293a.887.887,0,0,1-.823-1.232.911.911,0,0,1,.835-.584h9.953s.35-.053.169.3Z" data-name="Path 35" transform="translate(-28.057 -8.639)"/><path id="Path_36" fill="#2f67b2" d="M78.8,9.909a.9.9,0,0,0-.753-.409H69.292a.887.887,0,0,0-.636.263.87.87,0,0,0-.187.963.9.9,0,0,0,.835.584h9.953s.35.053.169-.3Z" data-name="Path 36" transform="translate(-28.056 -3.745)"/></g></svg>