<svg xmlns="http://www.w3.org/2000/svg" width="590" height="696" fill="none" viewBox="0 0 590 696"><g clip-path="url(#clip0_58_54)"><path fill="#8873EF" fill-opacity=".5" d="M554.6 0L35.4 0C15.8491 0 0 15.5805 0 34.8L0 661.2C0 680.419 15.8491 696 35.4 696H554.6C574.151 696 590 680.419 590 661.2V34.8C590 15.5805 574.151 0 554.6 0Z"/><mask id="mask0_58_54" style="mask-type:luminance" width="590" height="696" x="0" y="0" maskUnits="userSpaceOnUse"><path fill="#fff" d="M554.6 0L35.4 0C15.8491 0 0 15.5805 0 34.8L0 661.2C0 680.419 15.8491 696 35.4 696H554.6C574.151 696 590 680.419 590 661.2V34.8C590 15.5805 574.151 0 554.6 0Z"/></mask><g mask="url(#mask0_58_54)"><path stroke="#8873EF" stroke-opacity=".5" d="M516.185 292.867C558.273 390.101 437.945 426.648 389.183 453.732C344.622 478.482 300.093 566.312 262.183 561.774C165.225 550.174 258.687 431.37 191.353 361.05C81.4552 246.27 206.62 148.814 286.604 148.814C366.588 148.814 467.336 180.024 516.185 292.867Z"/><path stroke="#8873EF" stroke-opacity=".5" d="M465.963 297.915C482.672 334.339 471.594 360.956 448.703 381.285C425.474 401.887 390.545 414.828 370.713 425.304C336.354 443.449 302.53 510.228 273.617 505.496C201.451 493.686 270.165 406.067 219.548 352.424C137.302 265.263 231.293 191.524 291.764 190.92C352.256 190.281 427.37 213.79 465.963 297.915Z"/><path stroke="#8873EF" stroke-opacity=".5" d="M415.745 302.96C428.303 327.59 425.235 347.473 409.973 363.512C394.488 379.73 367.375 389.573 352.243 396.874C328.16 408.499 305.487 449.011 285.056 449.218C238.227 449.69 281.646 380.764 247.748 343.794C193.165 284.267 255.966 234.233 296.914 233.024C337.922 231.733 387.508 247.582 415.745 302.96Z"/><path stroke="#8873EF" stroke-opacity=".5" d="M365.524 308.006C374.06 320.998 378.874 333.996 371.243 345.734C363.502 357.566 344.289 364.342 333.776 368.441C320.132 373.759 307.978 391.503 296.495 392.933C269.692 396.274 293.127 355.485 275.944 335.165C249.011 303.312 280.645 276.994 302.071 275.127C323.597 273.248 348.062 281.417 365.524 308.006Z"/><path stroke="#8873EF" stroke-opacity=".5" d="M332.517 327.957C332.517 335.402 321.472 340.011 315.307 340.011C309.141 340.011 304.143 333.979 304.143 326.529C304.143 319.08 309.14 313.05 315.307 313.05C321.473 313.05 332.517 320.517 332.517 327.957Z"/><path stroke="#8873EF" stroke-opacity=".5" d="M524.775 682.443C501.865 723.215 463.811 753.705 418.567 767.539C350.702 788.361 251.813 803.73 167.084 758.122C21.5066 679.752 74.7777 630.045 -18.8105 531.226C-112.399 432.406 -134.469 381.818 -85.9418 246.266C-37.4143 110.714 -51.2829 185.672 18.0421 35.7455C87.3671 -114.181 160.402 -123.201 237.05 -95.5664C328.694 -62.5343 555.101 236.578 750.64 8.13756C849.103 -106.898 1064.83 102.419 1009.37 246.272C953.911 390.124 1034.9 569.775 910.115 548.033C785.332 526.291 744.429 545.846 647.669 569.698C590.112 583.887 548.804 639.61 524.775 682.443Z"/><path stroke="#8873EF" stroke-opacity=".5" d="M79.6736 53.1452C147.463 -54.6501 202.015 -63.7526 266.89 -40.4053C298.16 -29.1533 338.331 13.276 387.748 51.0027C468.741 112.847 601.345 152.172 703.878 78.475C832.337 -13.861 940.885 156.027 900.05 276.891C882.304 329.409 900.857 349.878 896.181 397.152C890.045 459.255 867.189 512.538 806.886 519.543C704.059 531.491 668.944 537.827 601.417 558.618C595.926 560.329 590.25 562.078 584.343 563.849C537.337 577.914 502.461 623.46 480.423 658.963C459.792 692.367 427.626 717.36 389.799 729.375C333.763 746.955 254.367 758.149 185.939 722.219C71.1033 661.445 105.866 620.313 31.6382 541.908C-6.32122 501.772 -29.6675 465.655 -42.9531 428.808C-60.0997 381.32 -60.0809 330.254 -39.0202 259.573C-16.1672 182.875 -8.77683 167.718 12.3511 137.255C26.773 116.475 52.5808 96.2218 79.6736 53.1452Z"/><path stroke="#8873EF" stroke-opacity=".5" d="M141.3 70.5384C203.096 4.74315 243.624 -4.31066 296.729 14.7551C323.839 24.4817 356.645 55.5465 395.942 82.9445C463.674 130.174 566.379 175.549 660.91 128.018C732.85 91.8464 921.106 40.8412 790.736 307.521C774.091 341.562 774.075 380.169 769.295 416.883C764.148 456.427 754.703 482.029 716.116 499.931C667.296 522.583 612.489 525.807 561.81 542.786C511.034 559.941 467.042 592.377 436.074 635.492C417.756 661.166 391.716 681.196 361.044 691.218C316.839 705.557 256.828 712.773 204.805 686.321C176.456 671.907 151.373 653.825 133.82 627.293C92.7562 565.211 38.5941 510.142 14.5127 438.896C-1.94596 390.299 -6.65534 337.703 7.9153 272.89C23.1597 205.089 32.1324 176.51 56.7567 142.779C75.416 117.209 111.397 102.376 141.3 70.5384Z"/><path stroke="#8873EF" stroke-opacity=".5" d="M177.934 89.8945C220.449 69.2024 269.266 61.4536 316.377 73.0931C381.689 89.2275 433.58 139.16 497.845 158.933C542.51 172.677 593.562 172.184 630.559 200.359C660.428 223.108 674.966 260.701 679.805 297.539C685.181 338.871 680.161 380.868 665.185 419.848C652.376 453.066 630.904 484.895 598.576 500.768C570.594 514.506 537.741 514.863 508.438 525.613C447.148 548.091 411.098 611.367 354.052 642.843C189.092 733.86 69.149 491.598 55.756 367.118C47.6046 291.349 56.4746 194.671 112.207 137.377C131.156 117.93 153.395 101.864 177.934 89.8945Z"/><path stroke="#8873EF" stroke-opacity=".5" d="M401.792 542.906C382.171 558.554 364.546 576.558 344.381 591.524C323.925 606.711 299.983 618.9 274.364 619.793C249.317 620.666 224.779 610.494 205.058 595.288C158.755 559.593 139.118 500.523 124.79 444.418C113.806 401.401 104.465 357.708 102.724 313.385C99.7736 238.305 120.218 144.976 200.01 114.994C289.915 81.2113 398.638 132.742 474.312 178.438C507.706 198.607 539.96 221.873 563.52 252.664C587.079 283.455 601.216 322.784 594.907 360.81C587.545 405.21 554.049 441.268 517.062 467.762C480.075 494.255 438.291 514.006 402.655 542.221C402.365 542.449 402.077 542.678 401.792 542.906Z"/></g></g><defs><clipPath id="clip0_58_54"><rect width="590" height="696" fill="#fff" rx="2"/></clipPath></defs></svg>