<svg xmlns="http://www.w3.org/2000/svg" width="70" height="70" viewBox="0 0 70 70">
  <g id="Group_49298" data-name="Group 49298" transform="translate(-230 -1115)">
    <circle id="Ellipse_12" data-name="Ellipse 12" cx="35" cy="35" r="35" transform="translate(230 1115)" fill="#f0fbf7"/>
    <path id="Union_6" data-name="Union 6" d="M2455,9753.749v-2.623h-1.748v2.623a2.626,2.626,0,0,1-5.251,0v-2.623h-.875a.875.875,0,0,1-.873-.875V9738a7.843,7.843,0,0,1,2.062-5.3l-1.922-2.971a.874.874,0,1,1,1.468-.947l1.783,2.754a7.87,7.87,0,0,1,9.08.079l1.646-2.8a.876.876,0,0,1,1.511.887l-1.832,3.118A7.864,7.864,0,0,1,2462,9738v12.251a.875.875,0,0,1-.873.875h-.875v2.623a2.626,2.626,0,0,1-5.251,0Zm1.75-3.5v3.5a.875.875,0,1,0,1.75,0v-3.5a.876.876,0,0,1,.875-.875h.875v-10.5H2448v10.5h.875a.875.875,0,0,1,.875.875v3.5a.875.875,0,1,0,1.75,0v-3.5a.876.876,0,0,1,.875-.875h3.5a.875.875,0,0,1,.875.875Zm3.439-13.124a6.181,6.181,0,0,0-1.733-3.464l-.006,0a.908.908,0,0,1-.178-.17,6.124,6.124,0,0,0-8.17-.1.907.907,0,0,1-.166.148,6.122,6.122,0,0,0-1.874,3.591Zm3.561,9.623V9738a.875.875,0,0,1,1.75,0v8.75a.875.875,0,0,1-1.75,0Zm-21,0V9738a.875.875,0,0,1,1.75,0v8.75a.875.875,0,0,1-1.75,0Zm12.274-12.249a.869.869,0,0,1,.867-.875h.019a.875.875,0,0,1,0,1.751A.885.885,0,0,1,2455.025,9734.5Zm-3.5,0a.868.868,0,0,1,.865-.875h.018a.876.876,0,1,1-.883.875Z" transform="translate(-2188.75 -8592.375)" fill="#46d39a" stroke="#46d39a" stroke-width="0.5"/>
  </g>
</svg>
