<svg xmlns="http://www.w3.org/2000/svg" width="20" height="20" fill="none" viewBox="0 0 18 18"><path fill="#8873EF" d="M2.175 5.3625C2.3625 5.175 2.5845 5.08125 2.841 5.08125C3.097 5.08125 3.31875 5.175 3.50625 5.3625L9 10.8562L14.5125 5.34375C14.6875 5.16875 14.9062 5.08125 15.1687 5.08125C15.4312 5.08125 15.6562 5.175 15.8437 5.3625C16.0312 5.55 16.125 5.772 16.125 6.0285C16.125 6.2845 16.0312 6.50625 15.8437 6.69375L9.525 12.9938C9.45 13.0688 9.36875 13.122 9.28125 13.1535C9.19375 13.1845 9.1 13.2 9 13.2C8.9 13.2 8.80625 13.1845 8.71875 13.1535C8.63125 13.122 8.55 13.0688 8.475 12.9938L2.15625 6.675C1.98125 6.5 1.89375 6.2845 1.89375 6.0285C1.89375 5.772 1.9875 5.55 2.175 5.3625Z"/></svg>