<svg xmlns="http://www.w3.org/2000/svg" width="20" height="20" fill="none" viewBox="0 0 20 20"><path fill="#8873EF" d="M10.9375 3.91668L16.4375 9.41668C16.5208 9.50001 16.58 9.59029 16.615 9.68751C16.6494 9.78474 16.6666 9.8889 16.6666 10C16.6666 10.1111 16.6494 10.2153 16.615 10.3125C16.58 10.4097 16.5208 10.5 16.4375 10.5833L10.9375 16.0833C10.7847 16.2361 10.5938 16.3161 10.365 16.3233C10.1355 16.33 9.93746 16.25 9.77079 16.0833C9.60413 15.9306 9.51718 15.7397 9.50996 15.5108C9.50329 15.2814 9.58329 15.0833 9.74996 14.9167L13.8333 10.8333H4.52079C4.28468 10.8333 4.08663 10.7536 3.92663 10.5942C3.76718 10.4342 3.68746 10.2361 3.68746 10C3.68746 9.7639 3.76718 9.56612 3.92663 9.40668C4.08663 9.24668 4.28468 9.16668 4.52079 9.16668H13.8333L9.74996 5.08335C9.59718 4.93057 9.51718 4.73612 9.50996 4.50001C9.50329 4.2639 9.58329 4.06946 9.74996 3.91668C9.90274 3.75001 10.0972 3.66668 10.3333 3.66668C10.5694 3.66668 10.7708 3.75001 10.9375 3.91668Z"/></svg>