<svg xmlns="http://www.w3.org/2000/svg" width="161" height="25" fill="none" viewBox="0 0 161 25"><g clip-path="url(#clip0_24_1006)"><path fill="#DDE2FF" d="M156.763 0H4.23684C1.8969 0 0 1.86548 0 4.16667C0 6.46785 1.8969 8.33333 4.23684 8.33333H156.763C159.103 8.33333 161 6.46785 161 4.16667C161 1.86548 159.103 0 156.763 0Z" opacity=".5"/><path fill="#DDE2FF" d="M122.868 16.667H4.23684C1.8969 16.667 0 18.5325 0 20.8337C0 23.1348 1.8969 25.0003 4.23684 25.0003H122.868C125.208 25.0003 127.105 23.1348 127.105 20.8337C127.105 18.5325 125.208 16.667 122.868 16.667Z" opacity=".5"/></g><defs><clipPath id="clip0_24_1006"><rect width="161" height="25" fill="#fff"/></clipPath></defs></svg>