<svg width="172" height="45" viewBox="0 0 172 45" fill="none" xmlns="http://www.w3.org/2000/svg">
<g clip-path="url(#clip0_24_999)">
<path opacity="0.5" d="M167.474 0H4.52632C2.0265 0 0 2.01472 0 4.5C0 6.98528 2.0265 9 4.52632 9H167.474C169.974 9 172 6.98528 172 4.5C172 2.01472 169.974 0 167.474 0Z" fill="#DDE2FF"/>
<path opacity="0.5" d="M131.263 18H4.52632C2.0265 18 0 20.0147 0 22.5C0 24.9853 2.0265 27 4.52632 27H131.263C133.763 27 135.789 24.9853 135.789 22.5C135.789 20.0147 133.763 18 131.263 18Z" fill="#DDE2FF"/>
<path opacity="0.5" d="M104.105 36H4.52632C2.0265 36 0 38.0147 0 40.5C0 42.9853 2.0265 45 4.52632 45H104.105C106.605 45 108.632 42.9853 108.632 40.5C108.632 38.0147 106.605 36 104.105 36Z" fill="#DDE2FF"/>
</g>
<defs>
<clipPath id="clip0_24_999">
<rect width="172" height="45" fill="white"/>
</clipPath>
</defs>
</svg>
