<svg width="227" height="64" viewBox="0 0 227 64" fill="none" xmlns="http://www.w3.org/2000/svg">
<g clip-path="url(#clip0_24_1012)">
<path opacity="0.5" d="M222.46 0H4.54C2.03263 0 0 2.0467 0 4.57143C0 7.09616 2.03263 9.14286 4.54 9.14286H222.46C224.967 9.14286 227 7.09616 227 4.57143C227 2.0467 224.967 0 222.46 0Z" fill="#DDE2FF"/>
<path opacity="0.5" d="M177.06 18.2861H4.54C2.03263 18.2861 0 20.3328 0 22.8576C0 25.3823 2.03263 27.429 4.54 27.429H177.06C179.567 27.429 181.6 25.3823 181.6 22.8576C181.6 20.3328 179.567 18.2861 177.06 18.2861Z" fill="#DDE2FF"/>
<path opacity="0.5" d="M131.66 36.5713H4.54C2.03263 36.5713 0 38.618 0 41.1427C0 43.6674 2.03263 45.7141 4.54 45.7141H131.66C134.167 45.7141 136.2 43.6674 136.2 41.1427C136.2 38.618 134.167 36.5713 131.66 36.5713Z" fill="#DDE2FF"/>
<path opacity="0.5" d="M86.26 54.8574H4.54C2.03263 54.8574 0 56.9041 0 59.4289C0 61.9536 2.03263 64.0003 4.54 64.0003H86.26C88.7674 64.0003 90.8 61.9536 90.8 59.4289C90.8 56.9041 88.7674 54.8574 86.26 54.8574Z" fill="#DDE2FF"/>
</g>
<defs>
<clipPath id="clip0_24_1012">
<rect width="227" height="64" fill="white"/>
</clipPath>
</defs>
</svg>
