<svg xmlns="http://www.w3.org/2000/svg" xmlns:xlink="http://www.w3.org/1999/xlink" width="500" height="600" viewBox="0 0 500 600"><defs><style>.a{fill:#f4f1ff;}.b{clip-path:url(#a);}.c{fill:none;stroke:rgba(130,143,173,0.1);stroke-miterlimit:10;stroke-width:1.5px;fill-rule:evenodd;}</style><clipPath id="a"><rect class="a" width="500" height="600" rx="30" transform="translate(383 5699)"/></clipPath></defs><g transform="translate(-693 -16038)"><rect class="a" width="500" height="600" rx="30" transform="translate(693 16038)"/><g class="b" transform="translate(310 10339)"><path class="c" d="M875.115,326.824c35.668,83.822-66.305,115.328-107.629,138.676-37.763,21.337-75.5,97.052-107.627,93.14-82.168-10-2.963-112.417-60.025-173.038C506.7,286.654,612.772,202.64,680.555,202.64S833.718,229.545,875.115,326.824Z" transform="translate(-54.67 5624.648)"/><path class="c" d="M812.182,308.888c14.16,31.4,4.772,54.346-14.627,71.871-19.686,17.76-49.287,28.916-66.093,37.947-29.118,15.643-57.783,73.211-82.285,69.131-61.158-10.181-2.926-85.714-45.821-131.958-69.7-75.139,9.953-138.707,61.2-139.228C715.82,216.1,779.476,236.367,812.182,308.888Z" transform="translate(-34.298 5646.935)"/><path class="c" d="M749.251,290.976c10.643,21.233,8.043,38.374-4.891,52.2-13.123,13.981-36.1,22.467-48.924,28.761-20.409,10.021-39.624,44.945-56.938,45.124-39.686.407-2.89-59.012-31.617-90.883-46.257-51.316,6.964-94.449,41.666-95.491C683.3,229.574,725.322,243.237,749.251,290.976Z" transform="translate(-13.925 5669.196)"/><path class="c" d="M686.323,273.131c7.234,11.2,11.314,22.405,4.847,32.524-6.56,10.2-22.843,16.042-31.752,19.575-11.563,4.585-21.863,19.881-31.594,21.114-22.714,2.88-2.854-32.283-17.416-49.8-22.825-27.459,3.984-50.147,22.141-51.757C650.792,243.167,671.525,250.21,686.323,273.131Z" transform="translate(6.443 5691.391)"/><path class="c" d="M638.28,270.114c0,6.418-9.36,10.391-14.585,10.391s-9.461-5.2-9.461-11.622,4.235-11.62,9.461-11.62S638.28,263.7,638.28,270.114Z" transform="translate(26.514 5711.608)"/><path class="c" d="M1017.253,798.579a155.63,155.63,0,0,1-90.007,73.358c-57.513,17.95-141.317,31.2-213.121-8.118-123.371-67.56-78.226-110.411-157.538-195.6s-98.016-128.8-56.891-245.655,29.372-52.236,88.122-181.483,120.644-137.023,185.6-113.2c77.664,28.476,269.535,286.331,435.246,89.4,83.443-99.169,266.259,81.277,219.261,205.288s21.635,278.882-84.113,260.139S1203.4,680.823,1121.4,701.385C1072.623,713.617,1037.616,761.654,1017.253,798.579Z" transform="translate(-189.528 5488.734)"/><path class="c" d="M611.121,225.927C668.57,133,714.8,125.153,769.779,145.28c26.5,9.7,60.543,46.277,102.422,78.8,68.638,53.314,181.014,87.215,267.907,23.683,108.863-79.6,200.853,66.855,166.247,171.048-15.039,45.274.684,62.92-3.279,103.674-5.2,53.537-24.569,99.47-75.673,105.509-87.142,10.3-116.9,15.762-174.127,33.685-4.653,1.475-9.463,2.983-14.469,4.51-39.836,12.125-69.392,51.389-88.068,81.995a140.32,140.32,0,0,1-76.8,60.7c-47.488,15.155-114.773,24.805-172.763-6.169-97.318-52.392-67.858-87.85-130.763-155.441-32.169-34.6-51.954-65.735-63.213-97.5-14.531-40.938-14.515-84.96,3.333-145.892,19.367-66.119,25.63-79.185,43.535-105.447C566.29,280.522,588.161,263.062,611.121,225.927Z" transform="translate(-160.601 5518.888)"/><path class="c" d="M634.958,210.8c52.369-56.72,86.715-64.525,131.719-48.089,22.975,8.385,50.777,35.165,84.079,58.784,57.4,40.715,144.438,79.831,224.549,38.856,60.966-31.182,220.505-75.152,110.022,154.744-14.106,29.346-14.119,62.628-18.17,94.278-4.362,34.09-12.366,56.16-45.067,71.593-41.373,19.528-87.819,22.307-130.768,36.944a216.641,216.641,0,0,0-106.556,79.919c-15.523,22.133-37.591,39.4-63.584,48.04-37.462,12.361-88.319,18.582-132.406-4.222-24.025-12.426-45.282-28.014-60.157-50.886-34.8-53.519-80.7-100.992-101.108-162.411-13.948-41.894-17.939-87.236-5.591-143.109,12.919-58.449,20.523-83.086,41.391-112.165C579.124,251.033,609.616,238.246,634.958,210.8Z" transform="translate(-132.212 5549.009)"/><path class="c" d="M637.923,194.814c36.029-17.838,77.4-24.518,117.324-14.484,55.349,13.909,99.325,56.954,153.787,74,37.851,11.848,81.116,11.423,112.469,35.712,25.313,19.611,37.633,52.019,41.734,83.776a219.6,219.6,0,0,1-12.39,105.439c-10.855,28.636-29.051,56.075-56.448,69.758-23.714,11.843-51.555,12.151-76.388,21.418-51.941,19.378-82.492,73.926-130.836,101.061C647.379,749.957,545.732,541.11,534.382,433.8c-6.908-65.318.609-148.661,47.84-198.053A200.6,200.6,0,0,1,637.923,194.814Z" transform="translate(-104.131 5581.681)"/><path class="c" d="M801.969,566.044c-16.628,13.489-31.565,29.01-48.654,41.912-17.335,13.092-37.625,23.6-59.336,24.37-21.226.752-42.021-8.017-58.734-21.125-39.24-30.772-55.881-81.694-68.024-130.061-9.308-37.083-17.224-74.75-18.7-112.959-2.5-64.724,14.826-145.18,82.446-171.027,76.191-29.123,168.329,15.3,232.459,54.693,28.3,17.387,55.634,37.444,75.6,63.988s31.946,60.448,26.6,93.229c-6.239,38.276-34.626,69.361-65.971,92.2S832.9,541.13,802.7,565.453C802.454,565.65,802.21,565.847,801.969,566.044Z" transform="translate(-78.467 5600.979)"/></g></g></svg>