<svg xmlns="http://www.w3.org/2000/svg" width="70" height="70" viewBox="0 0 70 70"><g id="Group_49297" data-name="Group 49297" transform="translate(-230 -1114)"><circle id="Ellipse_12" cx="35" cy="35" r="35" fill="#fef1f2" data-name="Ellipse 12" transform="translate(230 1114)"/><path id="Union_7" fill="#f5808b" stroke="#f5808b" stroke-width=".5" d="M11.4,26.155A7.326,7.326,0,0,1,7.621,27.4C3.588,27.4,0,20.71,0,15.439c0-5.573,3.833-8.49,7.621-8.49A7.326,7.326,0,0,1,11.4,8.193a7.323,7.323,0,0,1,3.776-1.244,7.411,7.411,0,0,1,6.195,3.323.99.99,0,0,1,.126.825,1.018,1.018,0,0,1-.552.638,3.68,3.68,0,0,0,.461,6.886,1,1,0,0,1,.672,1.258C20.94,23.5,18.3,27.4,15.172,27.4A7.324,7.324,0,0,1,11.4,26.155Zm.615-2.037a5.818,5.818,0,0,0,3.161,1.262c1.521,0,3.5-2.279,4.631-5.234a5.663,5.663,0,0,1-.826-9.585,5.336,5.336,0,0,0-3.8-1.592,5.821,5.821,0,0,0-3.161,1.264,1.052,1.052,0,0,1-1.23,0A5.822,5.822,0,0,0,7.621,8.969c-2.676,0-5.556,2.024-5.556,6.471,0,4.8,3.261,9.94,5.556,9.94a5.818,5.818,0,0,0,3.161-1.262,1.045,1.045,0,0,1,1.23,0ZM10.96,5.713a1.009,1.009,0,0,1-.8-1.19,5.4,5.4,0,0,1,1.184-2.5h0A7.255,7.255,0,0,1,16.184,0a1.024,1.024,0,0,1,1.042.872,7.97,7.97,0,0,1-.22,2.955,1.03,1.03,0,0,1-.994.741,1.072,1.072,0,0,1-.275-.035,1.009,1.009,0,0,1-.72-1.242A5.479,5.479,0,0,0,15.2,2.156a4.225,4.225,0,0,0-2.294,1.181,3.441,3.441,0,0,0-.73,1.589,1.028,1.028,0,0,1-1.01.809A1,1,0,0,1,10.96,5.713Z" data-name="Union 7" transform="translate(254 1134.571)"/></g></svg>