<svg xmlns="http://www.w3.org/2000/svg" width="63" height="18" fill="none" viewBox="0 0 63 18"><path fill="#8873EF" d="M4.712 13.6H9.676V17H0.269333V1.02H4.712V13.6ZM19.0648 17.1587C17.5688 17.1587 16.1937 16.8111 14.9394 16.116C13.6852 15.4058 12.6879 14.4311 11.9474 13.192C11.2221 11.9378 10.8594 10.5249 10.8594 8.95333C10.8594 7.38178 11.2221 5.97644 11.9474 4.73733C12.6879 3.48311 13.6852 2.50844 14.9394 1.81333C16.1937 1.11822 17.5688 0.770667 19.0648 0.770667C20.5759 0.770667 21.951 1.11822 23.1901 1.81333C24.4443 2.50844 25.4341 3.48311 26.1594 4.73733C26.8848 5.97644 27.2474 7.38178 27.2474 8.95333C27.2474 10.5249 26.8848 11.9378 26.1594 13.192C25.4341 14.4311 24.4443 15.4058 23.1901 16.116C21.9359 16.8111 20.5608 17.1587 19.0648 17.1587ZM19.0648 13.0333C20.1981 13.0333 21.0897 12.6631 21.7394 11.9227C22.4043 11.1822 22.7368 10.1924 22.7368 8.95333C22.7368 7.684 22.4043 6.68667 21.7394 5.96133C21.0897 5.22089 20.1981 4.85067 19.0648 4.85067C17.9163 4.85067 17.0172 5.22089 16.3674 5.96133C15.7177 6.68667 15.3928 7.684 15.3928 8.95333C15.3928 10.2076 15.7177 11.2049 16.3674 11.9453C17.0172 12.6707 17.9163 13.0333 19.0648 13.0333ZM39.4446 6.27867C39.1877 5.85556 38.8326 5.53067 38.3793 5.304C37.941 5.07733 37.4197 4.964 36.8153 4.964C35.697 4.964 34.813 5.32667 34.1633 6.052C33.5286 6.77733 33.2113 7.752 33.2113 8.976C33.2113 10.3511 33.5513 11.4013 34.2313 12.1267C34.9264 12.8369 35.9313 13.192 37.2459 13.192C38.8024 13.192 39.913 12.4893 40.5779 11.084H36.1126V7.888H44.4086V12.1947C44.061 13.0409 43.5473 13.8342 42.8673 14.5747C42.2024 15.3151 41.3561 15.9271 40.3286 16.4107C39.301 16.8791 38.1299 17.1133 36.8153 17.1133C35.2135 17.1133 33.793 16.7733 32.5539 16.0933C31.3299 15.3982 30.3779 14.4387 29.6979 13.2147C29.033 11.9756 28.7006 10.5627 28.7006 8.976C28.7006 7.40444 29.033 6.00667 29.6979 4.78267C30.3779 3.54355 31.3299 2.584 32.5539 1.904C33.7779 1.20889 35.1908 0.861334 36.7926 0.861334C38.8024 0.861334 40.4646 1.34489 41.7793 2.312C43.0939 3.27911 43.9099 4.60133 44.2273 6.27867H39.4446ZM54.0609 17.1587C52.5649 17.1587 51.1898 16.8111 49.9355 16.116C48.6813 15.4058 47.684 14.4311 46.9435 13.192C46.2182 11.9378 45.8555 10.5249 45.8555 8.95333C45.8555 7.38178 46.2182 5.97644 46.9435 4.73733C47.684 3.48311 48.6813 2.50844 49.9355 1.81333C51.1898 1.11822 52.5649 0.770667 54.0609 0.770667C55.572 0.770667 56.9471 1.11822 58.1862 1.81333C59.4404 2.50844 60.4302 3.48311 61.1555 4.73733C61.8809 5.97644 62.2435 7.38178 62.2435 8.95333C62.2435 10.5249 61.8809 11.9378 61.1555 13.192C60.4302 14.4311 59.4404 15.4058 58.1862 16.116C56.932 16.8111 55.5569 17.1587 54.0609 17.1587ZM54.0609 13.0333C55.1942 13.0333 56.0858 12.6631 56.7355 11.9227C57.4004 11.1822 57.7329 10.1924 57.7329 8.95333C57.7329 7.684 57.4004 6.68667 56.7355 5.96133C56.0858 5.22089 55.1942 4.85067 54.0609 4.85067C52.9124 4.85067 52.0133 5.22089 51.3635 5.96133C50.7138 6.68667 50.3889 7.684 50.3889 8.95333C50.3889 10.2076 50.7138 11.2049 51.3635 11.9453C52.0133 12.6707 52.9124 13.0333 54.0609 13.0333Z"/></svg>