<svg xmlns="http://www.w3.org/2000/svg" width="70" height="70" viewBox="0 0 70 70">
  <g id="Group_49391" data-name="Group 49391" transform="translate(-230 -1115)">
    <circle id="Ellipse_12" data-name="Ellipse 12" cx="35" cy="35" r="35" transform="translate(230 1115)" fill="#fef5f2"/>
    <path id="Union_5" data-name="Union 5" d="M16.249,21.125A4.875,4.875,0,1,1,21.124,26,4.874,4.874,0,0,1,16.249,21.125Zm3.25,0A1.625,1.625,0,1,0,21.124,19.5,1.625,1.625,0,0,0,19.5,21.125Zm-16.25,3.25c0-9.8,5.529-11.421,9.969-12.727C16.8,10.595,19.2,9.834,19.449,5.6l-.426.427a1.625,1.625,0,0,1-2.3-2.3l3.25-3.25a1.624,1.624,0,0,1,2.3,0l3.25,3.25a1.625,1.625,0,0,1-2.3,2.3l-.53-.53c-.283,6.772-4.843,8.174-8.56,9.27C9.87,16.022,6.5,17.012,6.5,24.375a1.625,1.625,0,0,1-3.25,0Zm3.726-15.1-2.1-2.1-2.1,2.1a1.625,1.625,0,0,1-2.3-2.3l2.1-2.1-2.1-2.1a1.625,1.625,0,0,1,2.3-2.3l2.1,2.1,2.1-2.1a1.625,1.625,0,0,1,2.3,2.3l-2.1,2.1,2.1,2.1a1.625,1.625,0,0,1-2.3,2.3Z" transform="translate(252.001 1137)" fill="#fdbc8e"/>
  </g>
</svg>
