<svg xmlns="http://www.w3.org/2000/svg" width="70" height="70" viewBox="0 0 70 70"><g id="Group_49299" data-name="Group 49299" transform="translate(-230 -1115)"><circle id="Ellipse_12" cx="35" cy="35" r="35" fill="#eaf8ff" data-name="Ellipse 12" transform="translate(230 1115)"/><path id="Path_41" fill="#50defd" d="M26.929,19.976,21.961,15,26.566,10.4a4.918,4.918,0,0,0-6.951-6.959L15.01,8.043l-4.973-4.96a3.7,3.7,0,0,0-5.223,0L3.091,4.806a3.7,3.7,0,0,0,0,5.223L8.059,15,5.946,17.115a9.687,9.687,0,0,0-2.855,6.894v1.828a1.084,1.084,0,0,0,1.084,1.084H6A9.687,9.687,0,0,0,12.9,24.066l2.113-2.113,4.973,4.968a3.7,3.7,0,0,0,5.223,0L26.929,25.2A3.7,3.7,0,0,0,26.929,19.976Zm-5.773-15a2.747,2.747,0,0,1,4.689,1.934,2.709,2.709,0,0,1-.813,1.942l-4.605,4.605L16.543,9.585ZM11.364,22.533A7.528,7.528,0,0,1,6,24.754H5.258v-.745a7.528,7.528,0,0,1,2.221-5.361l2.113-2.113,3.884,3.884ZM25.4,23.671l-1.723,1.723a1.525,1.525,0,0,1-2.167,0L4.619,8.5a1.528,1.528,0,0,1,0-2.167L6.341,4.611a1.53,1.53,0,0,1,2.167,0L9.684,5.792,7.742,7.735A1.084,1.084,0,0,0,9.275,9.268l1.942-1.942,1.717,1.717-.859.859a1.084,1.084,0,0,0,1.533,1.533l.859-.859,1.717,1.717-1.942,1.942a1.084,1.084,0,1,0,1.533,1.533l1.942-1.942,1.717,1.717-.859.859a1.084,1.084,0,1,0,1.533,1.533l.859-.859,1.717,1.717-1.942,1.942a1.084,1.084,0,0,0,1.533,1.533l1.942-1.942L25.4,21.5a1.528,1.528,0,0,1,0,2.167Z" data-name="Path 41" transform="translate(250 1135)"/></g></svg>