<svg width="605" height="750" viewBox="0 0 605 750" fill="none" xmlns="http://www.w3.org/2000/svg">
<g clip-path="url(#clip0_24_1074)">
<path d="M568.7 0H36.3C16.2521 0 0 16.7893 0 37.5V712.5C0 733.211 16.2521 750 36.3 750H568.7C588.748 750 605 733.211 605 712.5V37.5C605 16.7893 588.748 0 568.7 0Z" fill="#8873EF" fill-opacity="0.5"/>
<mask id="mask0_24_1074" style="mask-type:luminance" maskUnits="userSpaceOnUse" x="0" y="0" width="605" height="750">
<path d="M568.7 0H36.3C16.2521 0 0 16.7893 0 37.5V712.5C0 733.211 16.2521 750 36.3 750H568.7C588.748 750 605 733.211 605 712.5V37.5C605 16.7893 588.748 0 568.7 0Z" fill="white"/>
</mask>
<g mask="url(#mask0_24_1074)">
<path d="M529.308 315.589C572.467 420.367 449.079 459.749 399.077 488.934C353.384 515.606 307.722 610.249 268.849 605.359C169.425 592.859 265.263 464.838 196.218 389.062C83.5263 265.377 211.873 160.359 293.891 160.359C375.908 160.359 479.218 193.991 529.308 315.589Z" stroke="#8873EF" stroke-opacity="0.5"/>
<path d="M477.81 321.029C494.943 360.279 483.584 388.961 460.111 410.867C436.291 433.067 400.474 447.012 380.139 458.301C344.906 477.855 310.221 549.815 280.574 544.715C206.573 531.989 277.033 437.572 225.13 379.767C140.793 285.844 237.173 206.384 299.182 205.732C361.212 205.044 438.236 230.377 477.81 321.029Z" stroke="#8873EF" stroke-opacity="0.5"/>
<path d="M426.314 326.464C439.193 353.005 436.047 374.431 420.396 391.714C404.518 409.19 376.715 419.798 361.198 427.665C336.503 440.192 313.253 483.846 292.303 484.07C244.283 484.579 288.806 410.305 254.047 370.466C198.076 306.322 262.473 252.405 304.463 251.103C346.514 249.711 397.36 266.79 426.314 326.464Z" stroke="#8873EF" stroke-opacity="0.5"/>
<path d="M374.817 331.902C383.57 345.902 388.507 359.909 380.682 372.557C372.744 385.307 353.042 392.61 342.262 397.026C328.271 402.757 315.808 421.877 304.033 423.419C276.549 427.019 300.58 383.065 282.96 361.169C255.342 326.845 287.78 298.485 309.75 296.472C331.824 294.447 356.911 303.251 374.817 331.902Z" stroke="#8873EF" stroke-opacity="0.5"/>
<path d="M340.971 353.402C340.971 361.424 329.645 366.39 323.323 366.39C317.001 366.39 311.875 359.89 311.875 351.863C311.875 343.835 316.999 337.338 323.323 337.338C329.646 337.338 340.971 345.384 340.971 353.402Z" stroke="#8873EF" stroke-opacity="0.5"/>
<path d="M538.117 735.391C514.625 779.326 475.603 812.181 429.209 827.088C359.618 849.526 258.215 866.088 171.332 816.941C22.0535 732.491 76.6789 678.927 -19.2886 572.441C-115.256 465.954 -137.888 411.441 -88.1267 265.372C-38.3654 119.303 -52.5866 200.077 18.5009 38.518C89.5884 -123.041 164.48 -132.761 243.077 -102.982C337.05 -67.387 569.214 254.932 769.724 8.76805C870.691 -115.193 1091.9 110.364 1035.03 265.378C978.163 420.392 1061.21 613.981 933.254 590.552C805.299 567.123 763.355 588.196 664.135 613.898C605.115 629.188 562.756 689.234 538.117 735.391Z" stroke="#8873EF" stroke-opacity="0.5"/>
<path d="M81.6992 57.268C151.213 -58.8908 207.151 -68.6996 273.675 -43.5408C305.74 -31.4158 346.932 14.3055 397.606 54.9592C480.658 121.602 616.633 163.978 721.774 84.563C853.498 -14.937 964.806 168.132 922.932 298.373C904.735 354.965 923.76 377.023 918.965 427.965C912.673 494.887 889.236 552.303 827.4 559.852C721.959 572.727 685.951 579.554 616.707 601.958C611.077 603.802 605.257 605.687 599.199 607.596C550.998 622.752 515.235 671.832 492.637 710.089C471.482 746.085 438.497 773.017 399.709 785.964C342.249 804.908 260.834 816.971 190.666 778.253C72.9111 712.763 108.558 668.44 32.4426 583.952C-6.48188 540.702 -30.4217 501.783 -44.0451 462.077C-61.6276 410.904 -61.6083 355.877 -40.0122 279.712C-16.5782 197.063 -8.99992 180.73 12.6651 147.903C27.4537 125.512 53.9176 103.687 81.6992 57.268Z" stroke="#8873EF" stroke-opacity="0.5"/>
<path d="M144.893 76.0108C208.259 5.11081 249.818 -4.64545 304.273 15.8996C332.072 26.3808 365.713 59.8558 406.008 89.3796C475.462 140.273 580.778 189.168 677.713 137.95C751.481 98.9721 944.524 44.0096 810.839 331.38C793.771 368.062 793.755 409.665 788.853 449.227C783.575 491.84 773.891 519.427 734.322 538.718C684.261 563.128 628.061 566.602 576.093 584.898C524.027 603.384 478.917 638.336 447.16 684.797C428.377 712.463 401.675 734.047 370.224 744.847C324.895 760.298 263.358 768.075 210.012 739.57C180.942 724.037 155.221 704.552 137.223 675.962C95.1145 609.063 39.5755 549.722 14.8818 472.948C-1.99529 420.581 -6.8244 363.903 8.11668 294.062C23.7487 221.001 32.9495 190.205 58.1998 153.856C77.3335 126.302 114.229 110.318 144.893 76.0108Z" stroke="#8873EF" stroke-opacity="0.5"/>
<path d="M182.458 96.8679C226.053 74.5704 276.112 66.2204 324.42 78.7629C391.393 96.1491 444.604 149.955 510.503 171.263C556.302 186.073 608.653 185.542 646.59 215.903C677.219 240.417 692.126 280.927 697.088 320.623C702.601 365.161 697.453 410.417 682.096 452.422C668.962 488.217 646.945 522.515 613.794 539.619C585.1 554.423 551.413 554.808 521.365 566.392C458.516 590.614 421.549 658.799 363.053 692.718C193.9 790.797 70.9072 529.738 57.1737 395.6C48.815 313.953 57.9106 209.774 115.06 148.034C134.491 127.078 157.296 109.766 182.458 96.8679Z" stroke="#8873EF" stroke-opacity="0.5"/>
<path d="M412.007 585.027C391.888 601.888 373.814 621.29 353.136 637.417C332.161 653.782 307.61 666.917 281.34 667.88C255.656 668.82 230.494 657.858 210.271 641.473C162.791 603.008 142.655 539.356 127.962 478.897C116.7 432.543 107.121 385.46 105.335 337.698C102.31 256.793 123.275 156.223 205.095 123.915C297.286 87.5109 408.773 143.04 486.37 192.281C520.613 214.015 553.688 239.086 577.846 272.266C602.005 305.446 616.501 347.826 610.032 388.802C602.483 436.647 568.135 475.503 530.208 504.052C492.28 532.601 449.434 553.885 412.892 584.288C412.594 584.535 412.299 584.781 412.007 585.027Z" stroke="#8873EF" stroke-opacity="0.5"/>
</g>
</g>
<defs>
<clipPath id="clip0_24_1074">
<rect width="605" height="750" rx="2" fill="white"/>
</clipPath>
</defs>
</svg>
