<svg width="40" height="40" viewBox="0 0 40 40" fill="none" xmlns="http://www.w3.org/2000/svg">
<g clip-path="url(#clip0_24_1108)">
<path d="M20 0C23.9556 0 27.8224 1.17298 31.1114 3.37061C34.4004 5.56824 36.9638 8.69181 38.4776 12.3463C39.9913 16.0009 40.3874 20.0222 39.6157 23.9018C38.844 27.7814 36.9392 31.3451 34.1421 34.1421C31.3451 36.9392 27.7814 38.844 23.9018 39.6157C20.0222 40.3874 16.0009 39.9913 12.3463 38.4776C8.69181 36.9638 5.56824 34.4004 3.37061 31.1114C1.17298 27.8224 0 23.9556 0 20C0 14.6957 2.10714 9.60859 5.85786 5.85786C9.60859 2.10714 14.6957 0 20 0Z" fill="#2C5DFF"/>
<path d="M22.0448 12C22.4552 12 22.8672 12.0224 23.276 12.0408C23.5424 12.052 23.8096 12.0896 24.06 12.1208L24.0408 14.5848H23.8448C23.5744 14.5848 23.3032 14.5848 23.0328 14.5848C22.8296 14.5848 22.6264 14.5848 22.4232 14.5936C21.7688 14.6152 21.288 14.8608 21.2544 15.6776C21.2336 16.2664 21.2184 17.5648 21.2176 17.6336C21.252 17.6336 21.8976 17.6336 22.548 17.6336C22.8736 17.6336 23.188 17.6336 23.4128 17.6336H23.9416C23.8088 18.5816 23.688 19.4912 23.5552 20.4064H21.2144L21.1616 27.3296H18.2952L18.348 20.3952H16L16.0208 17.6384H18.38V17.4312C18.384 16.876 18.38 16.32 18.3984 15.7648C18.4011 15.4108 18.431 15.0574 18.488 14.708C18.5513 14.2987 18.695 13.906 18.9108 13.5526C19.1267 13.1992 19.4104 12.892 19.7456 12.6488C20.3537 12.2286 21.0761 12.0053 21.8152 12.0088C21.8947 12.0029 21.9712 12 22.0448 12Z" fill="white"/>
</g>
<defs>
<clipPath id="clip0_24_1108">
<rect width="40" height="40" fill="white"/>
</clipPath>
</defs>
</svg>
