<svg xmlns="http://www.w3.org/2000/svg" width="40" height="40" fill="none" viewBox="0 0 40 40"><g clip-path="url(#clip0_24_1116)"><path fill="#2C5DFF" d="M20 40C31.0457 40 40 31.0457 40 20C40 8.95431 31.0457 0 20 0C8.95431 0 0 8.95431 0 20C0 31.0457 8.95431 40 20 40Z"/><path fill="#fff" d="M16.1528 26.0862C15.4472 25.9421 14.8055 25.5778 14.3201 25.0459C13.8346 24.5141 13.5304 23.8418 13.4511 23.126C13.2703 21.982 13.2511 16.6644 13.5807 15.51C13.7435 14.8202 14.1143 14.197 14.6428 13.7249C15.1714 13.2527 15.8323 12.9545 16.536 12.8702C17.6649 12.747 18.8006 12.6959 19.936 12.7178C21.2024 12.7178 22.4792 12.7523 23.248 12.7979C24.1702 12.8193 25.0519 13.1806 25.724 13.8124C26.3578 14.424 26.7433 15.2483 26.8064 16.1268C26.9064 17.1948 26.972 22.2397 26.6584 23.4221C26.5044 24.1302 26.1327 24.7725 25.5955 25.2588C25.0582 25.7452 24.3823 26.0509 23.6624 26.1338C22.4187 26.2537 21.1693 26.3039 19.92 26.2842C18.6609 26.3218 17.4009 26.2558 16.1528 26.0862ZM16.8767 14.0526C16.3336 14.0858 15.8193 14.3084 15.4232 14.6815C15.0271 15.0546 14.7743 15.5546 14.7088 16.0948C14.5247 18.3734 14.5092 20.6626 14.6624 22.9436C14.708 23.3977 14.8936 23.8266 15.1936 24.1706C15.4936 24.5145 15.8931 24.7565 16.3368 24.8635C17.5447 25.0352 18.7652 25.1021 19.9847 25.0635C21.4079 25.0635 22.8055 25.0188 23.3311 24.9604C23.8773 24.9301 24.3951 24.7073 24.7925 24.3315C25.19 23.9557 25.4416 23.4513 25.5024 22.9077C25.6824 20.6916 25.7091 18.4657 25.5824 16.2459C25.5568 15.7029 25.3381 15.1869 24.9657 14.7909C24.5933 14.3948 24.0916 14.1451 23.5511 14.0862C22.4239 13.9812 21.2918 13.9381 20.1599 13.9573C18.8119 13.9525 17.4679 13.9883 16.8767 14.0499V14.0526ZM16.6272 19.5077C16.6346 18.5826 17.0076 17.6978 17.6648 17.0467C18.322 16.3957 19.21 16.031 20.1351 16.0323C20.5907 16.0319 21.042 16.122 21.4626 16.2971C21.8832 16.4722 22.2648 16.7291 22.5856 17.0526C22.9064 17.3761 23.1599 17.7598 23.3314 18.1819C23.5029 18.604 23.589 19.056 23.5847 19.5116C23.5753 20.4361 23.2017 21.3197 22.545 21.9706C21.8883 22.6214 21.0013 22.9873 20.0767 22.9885C19.621 22.9891 19.1698 22.8991 18.749 22.7241C18.3282 22.549 17.9464 22.2923 17.6256 21.9686C17.3047 21.6449 17.0512 21.2608 16.8799 20.8385C16.7085 20.4162 16.6227 19.9634 16.6272 19.5077ZM17.8536 19.4854C17.8482 19.78 17.9012 20.0727 18.0096 20.3467C18.1181 20.6207 18.2797 20.8703 18.4852 21.0815C18.6908 21.2927 18.9361 21.4614 19.2071 21.5772C19.4781 21.693 19.7693 21.7539 20.0639 21.7565H20.0847C20.679 21.7554 21.2492 21.5214 21.6731 21.1049C22.097 20.6885 22.3411 20.1225 22.3528 19.5284C22.3588 19.2336 22.3062 18.9406 22.198 18.6663C22.0898 18.3919 21.9282 18.1416 21.7225 17.9303C21.5169 17.719 21.2713 17.551 21.0001 17.4354C20.7288 17.3198 20.4372 17.2592 20.1424 17.2573H20.1215C19.5272 17.258 18.9567 17.4915 18.5327 17.9081C18.1087 18.3246 17.8649 18.8911 17.8536 19.4854ZM22.9368 15.8971C22.9372 15.6817 23.0229 15.4752 23.1753 15.3229C23.3276 15.1706 23.5341 15.0846 23.7496 15.0842H23.7599C23.8665 15.0845 23.9721 15.1062 24.0704 15.1475C24.1687 15.1888 24.2578 15.2493 24.3326 15.3252C24.4074 15.4012 24.4665 15.4912 24.5063 15.5901C24.5462 15.689 24.5661 15.7944 24.5648 15.901C24.5623 16.1173 24.4744 16.3241 24.3204 16.476C24.1664 16.6279 23.9587 16.7128 23.7424 16.7124C23.6358 16.712 23.5304 16.6907 23.4322 16.6495C23.334 16.6083 23.2449 16.5483 23.17 16.4725C23.0951 16.3967 23.036 16.3068 22.996 16.2081C22.9559 16.1093 22.9358 16.0036 22.9368 15.8971Z"/></g><defs><clipPath id="clip0_24_1116"><rect width="40" height="40" fill="#fff"/></clipPath></defs></svg>