<svg xmlns="http://www.w3.org/2000/svg" width="40" height="40" fill="none" viewBox="0 0 40 40"><g clip-path="url(#clip0_24_1120)"><path fill="#2C5DFF" d="M20 40C31.0457 40 40 31.0457 40 20C40 8.95431 31.0457 0 20 0C8.95431 0 0 8.95431 0 20C0 31.0457 8.95431 40 20 40Z"/><path fill="#fff" d="M23.9664 24.857L23.9976 20.8297C24.0048 19.8697 23.9928 18.6297 22.6744 18.6297C21.3344 18.6297 21.1256 19.677 21.1168 20.7602L21.0856 24.8578H18.5088L18.5712 16.5723H21.0384L21.0312 17.7043H21.0688C21.3192 17.2832 21.6783 16.937 22.1085 16.7023C22.5386 16.4677 23.0239 16.3529 23.5136 16.3703C26.1232 16.3703 26.5888 18.0809 26.5728 20.3137L26.5384 24.8578L23.9664 24.857ZM14.32 24.857L14.3824 16.5715H16.9592L16.8968 24.857H14.32ZM14.196 13.9527C14.2002 13.5563 14.3604 13.1777 14.6419 12.8984C14.9234 12.6192 15.3035 12.462 15.7 12.4609C15.8955 12.4604 16.0892 12.4985 16.2698 12.5734C16.4504 12.6484 16.6142 12.7585 16.7519 12.8973C16.8896 13.0361 16.9984 13.2008 17.0719 13.382C17.1453 13.5632 17.1821 13.7572 17.18 13.9527C17.177 14.3497 17.0173 14.7294 16.7355 15.009C16.4538 15.2886 16.0729 15.4457 15.676 15.4457C15.4805 15.4456 15.287 15.4069 15.1066 15.3316C14.9262 15.2564 14.7625 15.1459 14.6249 15.007C14.4873 14.8682 14.3786 14.7037 14.305 14.5227C14.2314 14.3416 14.1943 14.1482 14.196 13.9527Z"/></g><defs><clipPath id="clip0_24_1120"><rect width="40" height="40" fill="#fff"/></clipPath></defs></svg>