<svg width="40" height="40" viewBox="0 0 40 40" fill="none" xmlns="http://www.w3.org/2000/svg">
<g clip-path="url(#clip0_24_1112)">
<path d="M20 40C31.0457 40 40 31.0457 40 20C40 8.95431 31.0457 0 20 0C8.95431 0 0 8.95431 0 20C0 31.0457 8.95431 40 20 40Z" fill="#2C5DFF"/>
<path d="M27.0656 15.4741C26.9646 15.6298 26.8543 15.7791 26.7351 15.9213C26.4266 16.3029 26.0685 16.6416 25.6704 16.9285L25.6208 17.0213C25.6348 17.4527 25.6134 17.8846 25.5568 18.3125C25.3157 20.1523 24.4888 21.8656 23.1984 23.1989C22.1113 24.3284 20.7109 25.1064 19.1776 25.4325C18.6429 25.5456 18.099 25.6096 17.5528 25.6237C17.4648 25.6237 17.3773 25.6237 17.2903 25.6237C15.7387 25.6303 14.2174 25.1943 12.9048 24.3669L12.8344 24.3237C13.0615 24.348 13.2899 24.3603 13.5184 24.3605C14.284 24.3615 15.0425 24.214 15.752 23.9261C16.2507 23.7218 16.7184 23.4488 17.1416 23.1149C16.5379 23.1016 15.9537 22.8996 15.4708 22.5371C14.988 22.1746 14.6308 21.67 14.4496 21.0941C14.6277 21.1287 14.8088 21.1461 14.9904 21.1461C15.2286 21.1454 15.4659 21.1169 15.6976 21.0613L15.7416 21.0397C15.0837 20.9009 14.4946 20.5377 14.0751 20.0123C13.6557 19.4869 13.432 18.8319 13.4424 18.1597C13.8402 18.3766 14.2838 18.4961 14.7368 18.5085C14.1324 18.0893 13.7087 17.4573 13.5504 16.7391C13.3922 16.0208 13.511 15.2693 13.8832 14.6349C14.611 15.5331 15.5194 16.2682 16.5496 16.7927C17.5798 17.3173 18.7087 17.6195 19.8632 17.6797C19.848 17.5605 19.8328 17.4621 19.8168 17.3597C19.7361 16.6151 19.9422 15.8677 20.3931 15.2696C20.844 14.6716 21.5058 14.2678 22.244 14.1405C22.4189 14.111 22.5961 14.096 22.7736 14.0957C23.1494 14.0966 23.5213 14.1728 23.8672 14.32C24.2131 14.4672 24.5259 14.6823 24.7872 14.9525C24.8149 14.9826 24.8535 15.0004 24.8944 15.0021C24.9095 15.0019 24.9246 14.9997 24.9392 14.9957C25.5363 14.8712 26.1099 14.6525 26.6383 14.3477L26.6768 14.3261C26.4688 14.9865 26.0293 15.5496 25.4392 15.9117C26.0002 15.8482 26.5484 15.7006 27.0656 15.4741Z" fill="white"/>
</g>
<defs>
<clipPath id="clip0_24_1112">
<rect width="40" height="40" fill="white"/>
</clipPath>
</defs>
</svg>
